<svg width="26" height="26" viewBox="0 0 26 26" fill="none" xmlns="http://www.w3.org/2000/svg">
<g clip-path="url(#clip0_404_1534)">
<path d="M12.9923 0C5.82841 0 0 5.83177 0 13C0 20.1684 5.82841 26 12.9923 26C20.1564 26 25.985 20.1684 25.985 13C25.9848 5.83177 20.1562 0 12.9923 0ZM12.9923 24.7178C6.53491 24.7178 1.28144 19.4613 1.28144 13C1.28144 6.53889 6.53491 1.28218 12.9923 1.28218C19.4497 1.28218 24.7036 6.53889 24.7036 13C24.7034 19.4613 19.4497 24.7178 12.9923 24.7178Z" fill="#313131"/>
<path d="M19.3388 9.12817C19.6399 8.96561 20.361 8.48263 20.7009 7.44597C20.7009 7.44597 19.8818 8.06517 18.767 8.13813L18.7467 8.14983C18.4546 7.81564 18.099 7.54884 17.7026 7.3665C17.3063 7.18416 16.8779 7.09029 16.4448 7.09088C14.7201 7.09088 13.3221 8.55265 13.3221 10.3558C13.3221 10.6293 13.3546 10.895 13.4155 11.149L13.4005 11.1254C13.4005 11.1254 10.0557 11.3258 6.90237 7.71932C6.90237 7.71932 5.50824 10.1964 7.89525 12.0907C7.37254 12.1816 6.44944 11.6899 6.44944 11.6899C6.44944 11.6899 6.50156 14.2941 8.97536 14.9318C8.57476 15.0412 7.82547 15.0772 7.58167 14.9683C7.58167 14.9683 7.94737 16.9533 10.4737 17.2996C9.82911 17.6822 8.6271 18.8476 5.90906 18.629C5.90906 18.629 7.86079 20.3044 11.4845 20.068C15.1082 19.8316 17.739 17.2812 18.8017 14.5857C19.8643 11.8903 19.5686 10.3555 19.5686 10.3555C19.5686 10.3555 20.4566 9.86829 21.067 8.70284C20.7851 8.7911 19.7394 9.05815 19.3502 9.15699C19.3463 9.14744 19.3425 9.13784 19.3388 9.12817Z" fill="#6C6C6C"/>
</g>
<defs>
<clipPath id="clip0_404_1534">
<rect width="26" height="26" fill="white"/>
</clipPath>
</defs>
</svg>
