<svg width="17" height="17" viewBox="0 0 17 17" fill="none" xmlns="http://www.w3.org/2000/svg">
<circle cx="8.33301" cy="8" r="8" fill="#E29D17"/>
<g filter="url(#filter0_d_1709_5954)">
<path d="M16.333 8C16.333 12.4183 12.7513 16 8.33301 16C3.91473 16 0.333008 12.4183 0.333008 8C0.333008 3.58172 3.91473 0 8.33301 0C12.7513 0 16.333 3.58172 16.333 8ZM1.28323 8C1.28323 11.8935 4.43952 15.0498 8.33301 15.0498C12.2265 15.0498 15.3828 11.8935 15.3828 8C15.3828 4.10651 12.2265 0.95022 8.33301 0.95022C4.43952 0.95022 1.28323 4.10651 1.28323 8Z" fill="#A06B05"/>
</g>
<g clip-path="url(#clip0_1709_5954)">
<path d="M8.85656 11.3203C8.86614 10.3413 8.61793 9.54509 8.30219 9.542C7.98644 9.53893 7.72272 10.3301 7.71316 11.3091C7.70358 12.2882 7.95179 13.0844 8.26753 13.0874C8.58328 13.0905 8.847 12.2994 8.85656 11.3203Z" fill="white"/>
<path d="M7.02512 11.0974C7.56253 10.279 7.78421 9.47504 7.52027 9.30173C7.25631 9.12841 6.60669 9.65138 6.06931 10.4698C5.5319 11.2882 5.31022 12.0922 5.57416 12.2655C5.83812 12.4388 6.48772 11.9159 7.02512 11.0974Z" fill="white"/>
<path d="M5.60331 9.92314C6.49791 9.52523 7.11907 8.96877 6.99073 8.68026C6.86241 8.39174 6.03318 8.48045 5.13859 8.87838C4.244 9.27629 3.62284 9.83275 3.75117 10.1213C3.87949 10.4098 4.70873 10.3211 5.60331 9.92314Z" fill="white"/>
<path d="M6.88347 7.87156C6.93152 7.55948 6.18598 7.18574 5.2183 7.03679C4.2506 6.88784 3.42718 7.02011 3.37915 7.33219C3.33112 7.64428 4.07665 8.01799 5.04434 8.16694C6.01203 8.31589 6.83545 8.18363 6.88347 7.87156Z" fill="white"/>
<path d="M7.23048 7.12815C7.43959 6.89156 7.01438 6.17414 6.28075 5.52576C5.54711 4.87738 4.78287 4.54356 4.57377 4.78016C4.36466 5.01677 4.78988 5.73419 5.52352 6.38257C6.25715 7.03095 7.0214 7.36476 7.23048 7.12815Z" fill="white"/>
<path d="M7.92259 6.69326C8.22642 6.60728 8.25661 5.77385 7.99003 4.83176C7.72344 3.88966 7.26102 3.19564 6.95719 3.28161C6.65336 3.36759 6.62318 4.201 6.88976 5.14311C7.15634 6.08519 7.61876 6.77923 7.92259 6.69326Z" fill="white"/>
<path d="M9.80101 5.1725C10.0861 4.23583 10.0724 3.40198 9.77031 3.31003C9.46823 3.21808 8.99222 3.90285 8.7071 4.83951C8.422 5.77617 8.43574 6.61002 8.73782 6.70197C9.0399 6.79391 9.51591 6.10916 9.80101 5.1725Z" fill="white"/>
<path d="M11.1434 6.43819C11.8896 5.80427 12.3288 5.0953 12.1243 4.85466C11.9199 4.61402 11.1493 4.93284 10.4031 5.56674C9.65693 6.20066 9.21778 6.90963 9.42222 7.15027C9.62665 7.39091 10.3973 7.07211 11.1434 6.43819Z" fill="white"/>
<path d="M11.5876 8.22918C12.558 8.09935 13.3108 7.74039 13.2689 7.42741C13.227 7.11445 12.4064 6.96599 11.4359 7.0958C10.4655 7.22564 9.71272 7.58459 9.7546 7.89758C9.79647 8.21054 10.6171 8.35901 11.5876 8.22918Z" fill="white"/>
<path d="M12.8393 10.2105C12.9733 9.92461 12.3632 9.35601 11.4767 8.94052C10.5901 8.52504 9.7628 8.42001 9.62881 8.70592C9.49481 8.99185 10.1049 9.56045 10.9915 9.97594C11.878 10.3914 12.7053 10.4965 12.8393 10.2105Z" fill="white"/>
<path d="M10.9751 12.3205C11.2424 12.1524 11.0366 11.3442 10.5155 10.5154C9.99431 9.68652 9.35512 9.15086 9.08781 9.31893C8.82051 9.48699 9.02629 10.2952 9.54744 11.124C10.0686 11.9529 10.7078 12.4886 10.9751 12.3205Z" fill="white"/>
</g>
<defs>
<filter id="filter0_d_1709_5954" x="0.333008" y="0" width="16.5" height="16.5" filterUnits="userSpaceOnUse" color-interpolation-filters="sRGB">
<feFlood flood-opacity="0" result="BackgroundImageFix"/>
<feColorMatrix in="SourceAlpha" type="matrix" values="0 0 0 0 0 0 0 0 0 0 0 0 0 0 0 0 0 0 127 0" result="hardAlpha"/>
<feOffset dx="0.5" dy="0.5"/>
<feComposite in2="hardAlpha" operator="out"/>
<feColorMatrix type="matrix" values="0 0 0 0 0.341667 0 0 0 0 0.254532 0 0 0 0 0.0868403 0 0 0 1 0"/>
<feBlend mode="normal" in2="BackgroundImageFix" result="effect1_dropShadow_1709_5954"/>
<feBlend mode="normal" in="SourceGraphic" in2="effect1_dropShadow_1709_5954" result="shape"/>
</filter>
<clipPath id="clip0_1709_5954">
<rect width="10.6667" height="10.6667" fill="white" transform="translate(2.9834 2.75684)"/>
</clipPath>
</defs>
</svg>
