<svg width="27" height="27" viewBox="0 0 27 27" fill="none" xmlns="http://www.w3.org/2000/svg">
<path d="M23.434 9.01127L16.0652 3.11627C14.6252 1.96877 12.3752 1.95752 10.9465 3.10502L3.5777 9.01127C2.5202 9.85502 1.87895 11.5425 2.10395 12.87L3.52145 21.3525C3.8477 23.2538 5.61395 24.75 7.5377 24.75H19.4627C21.364 24.75 23.164 23.22 23.4902 21.3413L24.9077 12.8588C25.1102 11.5425 24.469 9.85502 23.434 9.01127ZM14.344 20.25C14.344 20.7113 13.9615 21.0938 13.5002 21.0938C13.039 21.0938 12.6565 20.7113 12.6565 20.25V16.875C12.6565 16.4138 13.039 16.0313 13.5002 16.0313C13.9615 16.0313 14.344 16.4138 14.344 16.875V20.25Z" fill="white"/>
</svg>
