<svg width="28" height="28" viewBox="0 0 28 28" fill="none" xmlns="http://www.w3.org/2000/svg">
<g clip-path="url(#clip0_2950_4662)">
<rect width="28" height="28" rx="14" fill="#FCC413"/>
<path d="M14 28C6.26762 28 0 21.7324 0 14C0 6.26762 6.26762 0 14 0C21.7324 0 28 6.26762 28 14C28 21.7324 21.7324 28 14 28ZM10.6015 12.6035L14 9.205L17.4002 12.6053L19.3778 10.6278L14 5.25L8.624 10.626L10.6015 12.6035ZM5.25 14L7.2275 15.9775L9.205 14L7.2275 12.0225L5.25 14ZM10.6015 15.3965L8.62138 17.3714L8.624 17.374L14 22.75L19.3778 17.3722V17.3714L17.4002 15.3939L14 18.795L10.6015 15.3965ZM18.795 14L20.7725 15.9775L22.75 14L20.7725 12.0225L18.795 14ZM16.0055 13.9983H16.0064L14 11.9928L12.5169 13.475L12.3462 13.6456L11.9954 13.9974L11.9919 14L11.9954 14.0026L13.9991 16.0072L16.0064 14.0009L16.0072 14L16.0055 13.9991V13.9983Z" fill="#2B2E35"/>
</g>
<defs>
<clipPath id="clip0_2950_4662">
<rect width="28" height="28" rx="14" fill="white"/>
</clipPath>
</defs>
</svg>
