<svg width="28" height="28" viewBox="0 0 28 28" fill="none" xmlns="http://www.w3.org/2000/svg">
<rect width="28" height="28" rx="14" fill="#8247E5"/>
<path d="M18.4021 10.7601C18.0786 10.5752 17.6627 10.5752 17.293 10.7601L14.705 12.2851L12.9488 13.2556L10.407 14.7807C10.0836 14.9655 9.66762 14.9655 9.29791 14.7807L7.3107 13.5791C6.98721 13.3943 6.75614 13.0245 6.75614 12.6086V10.2979C6.75614 9.9282 6.94099 9.55849 7.3107 9.32742L9.29791 8.17206C9.62141 7.98721 10.0373 7.98721 10.407 8.17206L12.3943 9.37363C12.7178 9.55849 12.9488 9.9282 12.9488 10.3441V11.8692L14.705 10.8525V9.2812C14.705 8.91149 14.5201 8.54178 14.1504 8.31071L10.4533 6.13864C10.1298 5.95379 9.71384 5.95379 9.34413 6.13864L5.55457 8.35692C5.18486 8.54178 5 8.91149 5 9.2812V13.6253C5 13.995 5.18486 14.3648 5.55457 14.5958L9.29791 16.7679C9.62141 16.9527 10.0373 16.9527 10.407 16.7679L12.9488 15.289L14.705 14.2723L17.2467 12.7935C17.5702 12.6086 17.9862 12.6086 18.3559 12.7935L20.3431 13.9488C20.6666 14.1337 20.8977 14.5034 20.8977 14.9193V17.23C20.8977 17.5997 20.7128 17.9695 20.3431 18.2005L18.4021 19.3559C18.0786 19.5407 17.6627 19.5407 17.293 19.3559L15.3057 18.2005C14.9822 18.0157 14.7512 17.646 14.7512 17.23V15.7512L12.995 16.7679V18.293C12.995 18.6627 13.1799 19.0324 13.5496 19.2634L17.293 21.4355C17.6164 21.6204 18.0324 21.6204 18.4021 21.4355L22.1454 19.2634C22.4689 19.0786 22.7 18.7089 22.7 18.293V13.9026C22.7 13.5329 22.5151 13.1632 22.1454 12.9321L18.4021 10.7601Z" fill="white"/>
</svg>
