<svg width="17" height="17" viewBox="0 0 17 17" fill="none" xmlns="http://www.w3.org/2000/svg">
<circle cx="8" cy="8" r="8" fill="#1777E2"/>
<g filter="url(#filter0_d_55_4135)">
<path d="M16 8C16 12.4183 12.4183 16 8 16C3.58172 16 0 12.4183 0 8C0 3.58172 3.58172 0 8 0C12.4183 0 16 3.58172 16 8ZM0.95022 8C0.95022 11.8935 4.10651 15.0498 8 15.0498C11.8935 15.0498 15.0498 11.8935 15.0498 8C15.0498 4.10651 11.8935 0.95022 8 0.95022C4.10651 0.95022 0.95022 4.10651 0.95022 8Z" fill="#073D79"/>
</g>
<g clip-path="url(#clip0_55_4135)">
<path d="M8.52306 11.3202C8.53264 10.3411 8.28443 9.54497 7.9687 9.54188C7.65294 9.53881 7.38922 10.33 7.37966 11.309C7.37008 12.2881 7.6183 13.0842 7.93403 13.0873C8.24978 13.0904 8.51351 12.2992 8.52306 11.3202Z" fill="white"/>
<path d="M6.69212 11.0978C7.22952 10.2794 7.4512 9.4754 7.18726 9.30209C6.92331 9.12878 6.27368 9.65175 5.7363 10.4702C5.19889 11.2886 4.97721 12.0926 5.24115 12.2659C5.50511 12.4392 6.15471 11.9162 6.69212 11.0978Z" fill="white"/>
<path d="M5.26933 9.92356C6.16392 9.52565 6.78508 8.9692 6.65674 8.68068C6.52842 8.39217 5.6992 8.48088 4.8046 8.87881C3.91002 9.27672 3.28885 9.83317 3.41718 10.1217C3.54551 10.4102 4.37475 10.3215 5.26933 9.92356Z" fill="white"/>
<path d="M6.54949 7.87162C6.59753 7.55954 5.852 7.1858 4.88432 7.03685C3.91661 6.8879 3.0932 7.02017 3.04517 7.33225C2.99713 7.64434 3.74266 8.01805 4.71036 8.167C5.67804 8.31595 6.50147 8.18369 6.54949 7.87162Z" fill="white"/>
<path d="M6.89699 7.12815C7.1061 6.89156 6.68088 6.17414 5.94725 5.52576C5.21362 4.87738 4.44938 4.54356 4.24027 4.78016C4.03117 5.01677 4.45638 5.73419 5.19002 6.38257C5.92365 7.03095 6.6879 7.36476 6.89699 7.12815Z" fill="white"/>
<path d="M7.58909 6.69368C7.89292 6.60771 7.92311 5.77428 7.65653 4.83219C7.38995 3.89009 6.92753 3.19606 6.6237 3.28204C6.31987 3.36802 6.28968 4.20143 6.55626 5.14354C6.82284 6.08562 7.28527 6.77966 7.58909 6.69368Z" fill="white"/>
<path d="M9.46751 5.17286C9.75263 4.2362 9.7389 3.40235 9.43682 3.3104C9.13474 3.21845 8.65872 3.90322 8.3736 4.83988C8.08851 5.77653 8.10224 6.61039 8.40432 6.70233C8.7064 6.79428 9.18242 6.10952 9.46751 5.17286Z" fill="white"/>
<path d="M10.8104 6.43849C11.5566 5.80457 11.9958 5.0956 11.7913 4.85497C11.5869 4.61433 10.8162 4.93315 10.0701 5.56705C9.32392 6.20097 8.88477 6.90994 9.08921 7.15058C9.29365 7.39122 10.0643 7.07241 10.8104 6.43849Z" fill="white"/>
<path d="M11.2541 8.22949C12.2245 8.09965 12.9773 7.7407 12.9354 7.42772C12.8935 7.11476 12.0729 6.9663 11.1024 7.09611C10.132 7.22594 9.37922 7.5849 9.4211 7.89788C9.46298 8.21084 10.2836 8.35932 11.2541 8.22949Z" fill="white"/>
<path d="M12.5058 10.2111C12.6398 9.92522 12.0298 9.35662 11.1432 8.94113C10.2566 8.52565 9.4293 8.42062 9.29531 8.70653C9.16132 8.99246 9.77138 9.56106 10.658 9.97655C11.5445 10.392 12.3718 10.4971 12.5058 10.2111Z" fill="white"/>
<path d="M10.6411 12.3208C10.9084 12.1527 10.7026 11.3446 10.1815 10.5157C9.66033 9.68683 9.02114 9.15117 8.75383 9.31923C8.48652 9.4873 8.6923 10.2955 9.21346 11.1244C9.73461 11.9532 10.3738 12.4889 10.6411 12.3208Z" fill="white"/>
</g>
<defs>
<filter id="filter0_d_55_4135" x="0" y="0" width="16.5" height="16.5" filterUnits="userSpaceOnUse" color-interpolation-filters="sRGB">
<feFlood flood-opacity="0" result="BackgroundImageFix"/>
<feColorMatrix in="SourceAlpha" type="matrix" values="0 0 0 0 0 0 0 0 0 0 0 0 0 0 0 0 0 0 127 0" result="hardAlpha"/>
<feOffset dx="0.5" dy="0.5"/>
<feComposite in2="hardAlpha" operator="out"/>
<feColorMatrix type="matrix" values="0 0 0 0 0.109861 0 0 0 0 0.168348 0 0 0 0 0.233333 0 0 0 1 0"/>
<feBlend mode="normal" in2="BackgroundImageFix" result="effect1_dropShadow_55_4135"/>
<feBlend mode="normal" in="SourceGraphic" in2="effect1_dropShadow_55_4135" result="shape"/>
</filter>
<clipPath id="clip0_55_4135">
<rect width="10.6667" height="10.6667" fill="white" transform="translate(2.6499 2.75708)"/>
</clipPath>
</defs>
</svg>
