<svg width="235" height="48" viewBox="0 0 235 48" fill="none" xmlns="http://www.w3.org/2000/svg">
<rect width="235" height="48" rx="6" fill="#1777E2"/>
<path d="M57.416 23.9082H51.916C51.5402 23.9082 51.2285 23.5965 51.2285 23.2207C51.2285 22.8449 51.5402 22.5332 51.916 22.5332H57.416C57.7918 22.5332 58.1035 22.8449 58.1035 23.2207C58.1035 23.5965 57.7918 23.9082 57.416 23.9082Z" fill="white"/>
<path d="M47.334 23.9085C46.9582 23.9085 46.6465 23.5968 46.6465 23.221V18.986C46.6465 16.7402 48.4707 14.916 50.7165 14.916H55.8681C58.224 14.916 59.9382 16.4835 59.9382 18.6377C59.9382 19.0135 59.6265 19.3252 59.2507 19.3252C58.8748 19.3252 58.5632 19.0135 58.5632 18.6377C58.5632 17.0243 57.1606 16.291 55.8681 16.291H50.7165C49.2315 16.291 48.0215 17.501 48.0215 18.986V23.221C48.0215 23.606 47.7098 23.9085 47.334 23.9085Z" fill="white"/>
<path d="M60.1673 33.0752H51.0007C48.599 33.0752 46.6465 31.1227 46.6465 28.721V22.3044C46.6465 19.9027 48.599 17.9502 51.0007 17.9502H60.1673C62.569 17.9502 64.5215 19.9027 64.5215 22.3044V23.6335C64.5215 24.0093 64.2098 24.321 63.834 24.321H62.844C62.5231 24.321 62.2298 24.4401 62.019 24.6601L62.0098 24.6693C61.7073 24.9718 61.5881 25.3935 61.6981 25.806C61.8356 26.3193 62.3765 26.6952 62.9815 26.6952H63.834C64.2098 26.6952 64.5215 27.0068 64.5215 27.3827V28.7119C64.5215 31.1227 62.569 33.0752 60.1673 33.0752ZM51.0007 19.3252C49.3598 19.3252 48.0215 20.6635 48.0215 22.3044V28.721C48.0215 30.3619 49.3598 31.7002 51.0007 31.7002H60.1673C61.8082 31.7002 63.1465 30.3619 63.1465 28.721V28.0794H62.9815C61.744 28.0794 60.6715 27.3002 60.369 26.1727C60.1306 25.2835 60.3873 24.3393 61.0382 23.6977C61.5148 23.2118 62.1565 22.946 62.844 22.946H63.1465V22.3044C63.1465 20.6635 61.8082 19.3252 60.1673 19.3252H51.0007Z" fill="white"/>
<path d="M64.7217 28.0797H62.9526C61.5684 28.0797 60.3951 27.053 60.2851 25.733C60.2118 24.9722 60.4868 24.2296 61.0368 23.6888C61.4951 23.2121 62.1459 22.9463 62.8334 22.9463H64.7126C65.611 22.9463 66.3443 23.6705 66.3443 24.5688V26.4571C66.3534 27.3555 65.6201 28.0797 64.7217 28.0797ZM62.8426 24.3213C62.5217 24.3213 62.2285 24.4405 62.0176 24.6605C61.7518 24.9171 61.6234 25.2655 61.6601 25.6138C61.7059 26.2188 62.2926 26.7047 62.9526 26.7047H64.7217C64.8592 26.7047 64.9784 26.5946 64.9784 26.4571V24.5688C64.9784 24.4313 64.8592 24.3213 64.7217 24.3213H62.8426Z" fill="white"/>
<path d="M83.548 29.192C82.428 29.192 81.468 28.9947 80.668 28.6C79.8787 28.2053 79.2707 27.592 78.844 26.76C78.428 25.9173 78.22 24.8347 78.22 23.512C78.22 21.5813 78.6893 20.152 79.628 19.224C80.5667 18.296 81.8733 17.832 83.548 17.832C84.4547 17.832 85.2707 17.9867 85.996 18.296C86.732 18.6053 87.3133 19.0747 87.74 19.704C88.1773 20.3227 88.396 21.112 88.396 22.072H86.268C86.268 21.5387 86.1507 21.0907 85.916 20.728C85.692 20.3547 85.3773 20.072 84.972 19.88C84.5667 19.688 84.1027 19.592 83.58 19.592C82.8547 19.592 82.252 19.736 81.772 20.024C81.292 20.3013 80.9347 20.7173 80.7 21.272C80.476 21.8267 80.364 22.5147 80.364 23.336V23.688C80.364 24.52 80.476 25.2133 80.7 25.768C80.9347 26.3227 81.2867 26.7387 81.756 27.016C82.236 27.2933 82.844 27.432 83.58 27.432C84.1347 27.432 84.62 27.3413 85.036 27.16C85.452 26.968 85.772 26.6907 85.996 26.328C86.2307 25.9547 86.348 25.5013 86.348 24.968H88.396C88.396 25.928 88.1827 26.7227 87.756 27.352C87.3293 27.9707 86.748 28.4347 86.012 28.744C85.2867 29.0427 84.4653 29.192 83.548 29.192ZM93.8153 29.192C92.8979 29.192 92.1299 29.0373 91.5113 28.728C90.8926 28.408 90.4286 27.9227 90.1193 27.272C89.8099 26.6213 89.6553 25.7947 89.6553 24.792C89.6553 23.7787 89.8099 22.952 90.1193 22.312C90.4286 21.6613 90.8926 21.1813 91.5113 20.872C92.1299 20.552 92.8979 20.392 93.8153 20.392C94.7433 20.392 95.5113 20.552 96.1193 20.872C96.7379 21.1813 97.2019 21.6613 97.5113 22.312C97.8206 22.952 97.9753 23.7787 97.9753 24.792C97.9753 25.7947 97.8206 26.6213 97.5113 27.272C97.2019 27.9227 96.7379 28.408 96.1193 28.728C95.5113 29.0373 94.7433 29.192 93.8153 29.192ZM93.8153 27.592C94.3273 27.592 94.7379 27.496 95.0473 27.304C95.3673 27.1013 95.5966 26.8027 95.7353 26.408C95.8846 26.0027 95.9593 25.5013 95.9593 24.904V24.68C95.9593 24.0827 95.8846 23.5867 95.7353 23.192C95.5966 22.7867 95.3673 22.488 95.0473 22.296C94.7379 22.0933 94.3273 21.992 93.8153 21.992C93.3033 21.992 92.8873 22.0933 92.5673 22.296C92.2579 22.488 92.0286 22.7867 91.8793 23.192C91.7406 23.5867 91.6713 24.0827 91.6713 24.68V24.904C91.6713 25.5013 91.7406 26.0027 91.8793 26.408C92.0286 26.8027 92.2579 27.1013 92.5673 27.304C92.8873 27.496 93.3033 27.592 93.8153 27.592ZM99.6338 29V20.584H101.266L101.426 21.704H101.538C101.73 21.448 101.954 21.224 102.21 21.032C102.476 20.8293 102.775 20.6747 103.106 20.568C103.447 20.4507 103.82 20.392 104.226 20.392C104.759 20.392 105.228 20.488 105.634 20.68C106.05 20.872 106.375 21.1813 106.61 21.608C106.844 22.0347 106.962 22.6053 106.962 23.32V29H104.994V23.672C104.994 23.3733 104.956 23.128 104.882 22.936C104.818 22.7333 104.716 22.5733 104.578 22.456C104.45 22.328 104.29 22.2373 104.098 22.184C103.906 22.1307 103.692 22.104 103.458 22.104C103.106 22.104 102.786 22.1893 102.498 22.36C102.22 22.5307 101.996 22.7653 101.826 23.064C101.666 23.3627 101.586 23.7093 101.586 24.104V29H99.6338ZM108.978 29V20.584H110.61L110.77 21.704H110.882C111.074 21.448 111.298 21.224 111.554 21.032C111.82 20.8293 112.119 20.6747 112.45 20.568C112.791 20.4507 113.164 20.392 113.57 20.392C114.103 20.392 114.572 20.488 114.978 20.68C115.394 20.872 115.719 21.1813 115.954 21.608C116.188 22.0347 116.306 22.6053 116.306 23.32V29H114.338V23.672C114.338 23.3733 114.3 23.128 114.226 22.936C114.162 22.7333 114.06 22.5733 113.922 22.456C113.794 22.328 113.634 22.2373 113.442 22.184C113.25 22.1307 113.036 22.104 112.802 22.104C112.45 22.104 112.13 22.1893 111.842 22.36C111.564 22.5307 111.34 22.7653 111.17 23.064C111.01 23.3627 110.93 23.7093 110.93 24.104V29H108.978ZM121.937 29.192C121.041 29.192 120.295 29.0373 119.697 28.728C119.1 28.408 118.652 27.9227 118.353 27.272C118.055 26.6213 117.905 25.7947 117.905 24.792C117.905 23.7787 118.055 22.952 118.353 22.312C118.652 21.6613 119.1 21.1813 119.697 20.872C120.295 20.552 121.041 20.392 121.937 20.392C122.748 20.392 123.425 20.5467 123.969 20.856C124.524 21.1547 124.94 21.6187 125.217 22.248C125.495 22.8773 125.633 23.6933 125.633 24.696V25.272H119.905C119.927 25.7947 120.007 26.2373 120.145 26.6C120.284 26.952 120.497 27.2187 120.785 27.4C121.084 27.5707 121.473 27.656 121.953 27.656C122.199 27.656 122.428 27.624 122.641 27.56C122.855 27.496 123.041 27.4 123.201 27.272C123.361 27.1333 123.484 26.9627 123.569 26.76C123.665 26.5573 123.713 26.3227 123.713 26.056H125.633C125.633 26.5893 125.537 27.0533 125.345 27.448C125.164 27.8427 124.903 28.168 124.561 28.424C124.231 28.68 123.841 28.872 123.393 29C122.945 29.128 122.46 29.192 121.937 29.192ZM119.937 23.896H123.601C123.601 23.544 123.559 23.2453 123.473 23C123.399 22.7547 123.287 22.552 123.137 22.392C122.999 22.232 122.828 22.12 122.625 22.056C122.423 21.9813 122.193 21.944 121.937 21.944C121.521 21.944 121.169 22.0133 120.881 22.152C120.604 22.2907 120.391 22.504 120.241 22.792C120.092 23.08 119.991 23.448 119.937 23.896ZM130.794 29.192C129.919 29.192 129.189 29.0373 128.602 28.728C128.026 28.408 127.594 27.9227 127.306 27.272C127.018 26.6213 126.874 25.7947 126.874 24.792C126.874 23.7787 127.018 22.952 127.306 22.312C127.605 21.6613 128.042 21.1813 128.618 20.872C129.205 20.552 129.93 20.392 130.794 20.392C131.359 20.392 131.861 20.4613 132.298 20.6C132.735 20.7387 133.109 20.952 133.418 21.24C133.738 21.5173 133.978 21.864 134.138 22.28C134.298 22.696 134.378 23.1813 134.378 23.736H132.394C132.394 23.3413 132.335 23.016 132.218 22.76C132.101 22.504 131.919 22.312 131.674 22.184C131.439 22.0453 131.135 21.976 130.762 21.976C130.325 21.976 129.967 22.0773 129.69 22.28C129.413 22.4827 129.205 22.7867 129.066 23.192C128.938 23.5867 128.874 24.088 128.874 24.696V24.904C128.874 25.5013 128.938 26.0027 129.066 26.408C129.205 26.8133 129.418 27.1173 129.706 27.32C129.994 27.512 130.373 27.608 130.842 27.608C131.205 27.608 131.503 27.544 131.738 27.416C131.983 27.2773 132.17 27.0747 132.298 26.808C132.426 26.5413 132.49 26.2213 132.49 25.848H134.378C134.378 26.3707 134.298 26.84 134.138 27.256C133.978 27.672 133.743 28.024 133.434 28.312C133.125 28.6 132.746 28.8187 132.298 28.968C131.861 29.1173 131.359 29.192 130.794 29.192ZM138.264 29.192C137.741 29.192 137.331 29.0907 137.032 28.888C136.733 28.6747 136.52 28.408 136.392 28.088C136.275 27.7573 136.216 27.4213 136.216 27.08V22.184H135.208V20.584H136.264L136.616 18.232H138.168V20.584H139.624V22.184H138.168V26.888C138.168 27.112 138.227 27.288 138.344 27.416C138.461 27.5333 138.637 27.592 138.872 27.592H139.624V28.936C139.517 28.9787 139.384 29.016 139.224 29.048C139.075 29.0907 138.915 29.1227 138.744 29.144C138.573 29.176 138.413 29.192 138.264 29.192ZM146.37 29L143.394 18.024H145.602L147.378 25.08C147.41 25.1867 147.442 25.336 147.474 25.528C147.506 25.7093 147.538 25.9013 147.57 26.104C147.602 26.3067 147.629 26.488 147.65 26.648H147.73C147.752 26.52 147.768 26.3813 147.778 26.232C147.8 26.0827 147.821 25.9333 147.842 25.784C147.874 25.6347 147.901 25.5013 147.922 25.384C147.944 25.256 147.96 25.1547 147.97 25.08L149.618 18.024H152.29L153.938 25.08C153.97 25.1867 154.002 25.336 154.034 25.528C154.066 25.7093 154.098 25.9013 154.13 26.104C154.162 26.3067 154.189 26.488 154.21 26.648H154.29C154.312 26.5307 154.333 26.4027 154.354 26.264C154.386 26.1147 154.413 25.9707 154.434 25.832C154.466 25.6827 154.498 25.544 154.53 25.416C154.562 25.288 154.589 25.176 154.61 25.08L156.386 18.024H158.338L155.346 29H152.962L151.186 21.8C151.154 21.6507 151.117 21.48 151.074 21.288C151.042 21.0853 151.01 20.888 150.978 20.696C150.957 20.4933 150.936 20.3173 150.914 20.168H150.85C150.84 20.328 150.818 20.5147 150.786 20.728C150.765 20.9307 150.738 21.128 150.706 21.32C150.674 21.512 150.642 21.672 150.61 21.8L148.85 29H146.37ZM160.903 29.192C160.668 29.192 160.396 29.16 160.087 29.096C159.788 29.0427 159.495 28.936 159.207 28.776C158.93 28.616 158.7 28.3813 158.519 28.072C158.338 27.752 158.247 27.336 158.247 26.824C158.247 26.248 158.375 25.7733 158.631 25.4C158.887 25.016 159.244 24.7173 159.703 24.504C160.172 24.28 160.727 24.1253 161.367 24.04C162.018 23.944 162.727 23.896 163.495 23.896V23.208C163.495 22.9627 163.458 22.744 163.383 22.552C163.308 22.36 163.17 22.2107 162.967 22.104C162.775 21.9867 162.482 21.928 162.087 21.928C161.692 21.928 161.383 21.976 161.159 22.072C160.935 22.168 160.78 22.2853 160.695 22.424C160.61 22.5627 160.567 22.7067 160.567 22.856V23.08H158.679C158.668 23.0267 158.663 22.9733 158.663 22.92C158.663 22.8667 158.663 22.8027 158.663 22.728C158.663 22.248 158.807 21.832 159.095 21.48C159.383 21.128 159.783 20.8613 160.295 20.68C160.807 20.488 161.399 20.392 162.071 20.392C162.839 20.392 163.468 20.4987 163.959 20.712C164.46 20.9253 164.834 21.2293 165.079 21.624C165.324 22.0187 165.447 22.4987 165.447 23.064V27.032C165.447 27.2347 165.506 27.3787 165.623 27.464C165.74 27.5493 165.868 27.592 166.007 27.592H166.519V28.936C166.412 28.9787 166.258 29.0267 166.055 29.08C165.852 29.144 165.602 29.176 165.303 29.176C165.026 29.176 164.775 29.128 164.551 29.032C164.338 28.9467 164.156 28.8187 164.007 28.648C163.858 28.4773 163.751 28.2747 163.687 28.04H163.591C163.41 28.264 163.191 28.4667 162.935 28.648C162.69 28.8187 162.396 28.952 162.055 29.048C161.724 29.144 161.34 29.192 160.903 29.192ZM161.495 27.592C161.815 27.592 162.098 27.544 162.343 27.448C162.599 27.352 162.807 27.2187 162.967 27.048C163.138 26.8773 163.266 26.6693 163.351 26.424C163.447 26.1787 163.495 25.912 163.495 25.624V25.24C162.908 25.24 162.364 25.2773 161.863 25.352C161.372 25.4267 160.978 25.5653 160.679 25.768C160.391 25.9707 160.247 26.2587 160.247 26.632C160.247 26.824 160.29 26.9947 160.375 27.144C160.471 27.2827 160.61 27.3947 160.791 27.48C160.983 27.5547 161.218 27.592 161.495 27.592ZM167.634 29V17.432H169.586V29H167.634ZM171.665 29V17.432H173.617V29H171.665ZM179.312 29.192C178.416 29.192 177.67 29.0373 177.072 28.728C176.475 28.408 176.027 27.9227 175.728 27.272C175.43 26.6213 175.28 25.7947 175.28 24.792C175.28 23.7787 175.43 22.952 175.728 22.312C176.027 21.6613 176.475 21.1813 177.072 20.872C177.67 20.552 178.416 20.392 179.312 20.392C180.123 20.392 180.8 20.5467 181.344 20.856C181.899 21.1547 182.315 21.6187 182.592 22.248C182.87 22.8773 183.008 23.6933 183.008 24.696V25.272H177.28C177.302 25.7947 177.382 26.2373 177.52 26.6C177.659 26.952 177.872 27.2187 178.16 27.4C178.459 27.5707 178.848 27.656 179.328 27.656C179.574 27.656 179.803 27.624 180.016 27.56C180.23 27.496 180.416 27.4 180.576 27.272C180.736 27.1333 180.859 26.9627 180.944 26.76C181.04 26.5573 181.088 26.3227 181.088 26.056H183.008C183.008 26.5893 182.912 27.0533 182.72 27.448C182.539 27.8427 182.278 28.168 181.936 28.424C181.606 28.68 181.216 28.872 180.768 29C180.32 29.128 179.835 29.192 179.312 29.192ZM177.312 23.896H180.976C180.976 23.544 180.934 23.2453 180.848 23C180.774 22.7547 180.662 22.552 180.512 22.392C180.374 22.232 180.203 22.12 180 22.056C179.798 21.9813 179.568 21.944 179.312 21.944C178.896 21.944 178.544 22.0133 178.256 22.152C177.979 22.2907 177.766 22.504 177.616 22.792C177.467 23.08 177.366 23.448 177.312 23.896ZM186.889 29.192C186.366 29.192 185.956 29.0907 185.657 28.888C185.358 28.6747 185.145 28.408 185.017 28.088C184.9 27.7573 184.841 27.4213 184.841 27.08V22.184H183.833V20.584H184.889L185.241 18.232H186.793V20.584H188.249V22.184H186.793V26.888C186.793 27.112 186.852 27.288 186.969 27.416C187.086 27.5333 187.262 27.592 187.497 27.592H188.249V28.936C188.142 28.9787 188.009 29.016 187.849 29.048C187.7 29.0907 187.54 29.1227 187.369 29.144C187.198 29.176 187.038 29.192 186.889 29.192Z" fill="white"/>
</svg>
