<svg width="20" height="21" viewBox="0 0 20 21" fill="none" xmlns="http://www.w3.org/2000/svg">
<path d="M9.25008 19.4584H5.75008C2.49175 19.4584 1.04175 18.0084 1.04175 14.75V11.25C1.04175 7.99169 2.49175 6.54169 5.75008 6.54169H9.25008C12.5084 6.54169 13.9584 7.99169 13.9584 11.25V14.75C13.9584 18.0084 12.5084 19.4584 9.25008 19.4584ZM5.75008 7.79169C3.16675 7.79169 2.29175 8.66669 2.29175 11.25V14.75C2.29175 17.3334 3.16675 18.2084 5.75008 18.2084H9.25008C11.8334 18.2084 12.7084 17.3334 12.7084 14.75V11.25C12.7084 8.66669 11.8334 7.79169 9.25008 7.79169H5.75008Z" fill="white"/>
<path d="M14.2501 14.4584H13.3334C12.9917 14.4584 12.7084 14.175 12.7084 13.8334V11.25C12.7084 8.66669 11.8334 7.79169 9.25008 7.79169H6.66675C6.32508 7.79169 6.04175 7.50835 6.04175 7.16669V6.25002C6.04175 2.99169 7.49175 1.54169 10.7501 1.54169H14.2501C17.5084 1.54169 18.9584 2.99169 18.9584 6.25002V9.75002C18.9584 13.0084 17.5084 14.4584 14.2501 14.4584ZM13.9584 13.2084H14.2501C16.8334 13.2084 17.7084 12.3334 17.7084 9.75002V6.25002C17.7084 3.66669 16.8334 2.79169 14.2501 2.79169H10.7501C8.16675 2.79169 7.29175 3.66669 7.29175 6.25002V6.54169H9.25008C12.5084 6.54169 13.9584 7.99169 13.9584 11.25V13.2084Z" fill="white"/>
</svg>
