<svg width="21" height="22" viewBox="0 0 21 22" fill="none" xmlns="http://www.w3.org/2000/svg">
<rect y="0.5" width="21" height="21" rx="10.5" fill="#1777E2"/>
<path d="M7.09277 15.6348C6.78164 15.6348 6.49092 15.5277 6.28181 15.3288C6.01659 15.0788 5.88908 14.7014 5.93498 14.2934L6.12369 12.6409C6.1594 12.3297 6.34811 11.9166 6.56743 11.6922L10.7548 7.25994C11.8004 6.15316 12.8919 6.12256 13.9987 7.16814C15.1055 8.21371 15.1361 9.3052 14.0905 10.412L9.90308 14.8442C9.68886 15.0737 9.29103 15.288 8.97991 15.339L7.33759 15.6195C7.25088 15.6246 7.17437 15.6348 7.09277 15.6348ZM12.3921 7.16304C11.9993 7.16304 11.6576 7.40785 11.3108 7.77508L7.12337 12.2124C7.02136 12.3195 6.90405 12.5745 6.88365 12.7225L6.69494 14.375C6.67454 14.5433 6.71534 14.681 6.80715 14.7677C6.89895 14.8544 7.03666 14.885 7.20498 14.8595L8.8473 14.579C8.99521 14.5535 9.24003 14.4209 9.34204 14.3138L13.5295 9.88154C14.1619 9.20829 14.3914 8.58604 13.4683 7.71898C13.0602 7.32625 12.7083 7.16304 12.3921 7.16304Z" fill="white"/>
<path d="M13.1093 11.2638C13.0991 11.2638 13.0838 11.2638 13.0736 11.2638C11.4823 11.1057 10.2021 9.89693 9.95725 8.31581C9.92665 8.10669 10.0695 7.91288 10.2786 7.87717C10.4877 7.84657 10.6815 7.98938 10.7172 8.1985C10.911 9.43279 11.9107 10.3815 13.1552 10.5039C13.3643 10.5243 13.5173 10.713 13.4969 10.9221C13.4714 11.1159 13.3031 11.2638 13.1093 11.2638Z" fill="white"/>
</svg>
