<svg width="14" height="14" viewBox="0 0 14 14" fill="none" xmlns="http://www.w3.org/2000/svg">
<path d="M7.58326 6.85417C7.47242 6.85417 7.36159 6.81334 7.27409 6.72584C7.10493 6.55667 7.10493 6.27667 7.27409 6.1075L12.0574 1.32417C12.2266 1.155 12.5066 1.155 12.6758 1.32417C12.8449 1.49334 12.8449 1.77334 12.6758 1.9425L7.89242 6.72584C7.80492 6.81334 7.69409 6.85417 7.58326 6.85417Z" fill="#1777E2"/>
<path d="M12.8334 4.40416C12.5943 4.40416 12.3959 4.20582 12.3959 3.96666V1.60416H10.0334C9.79428 1.60416 9.59595 1.40582 9.59595 1.16666C9.59595 0.92749 9.79428 0.729156 10.0334 0.729156H12.8334C13.0726 0.729156 13.2709 0.92749 13.2709 1.16666V3.96666C13.2709 4.20582 13.0726 4.40416 12.8334 4.40416Z" fill="#1777E2"/>
<path d="M8.75008 13.2708H5.25008C2.08258 13.2708 0.729248 11.9175 0.729248 8.74999V5.24999C0.729248 2.08249 2.08258 0.729156 5.25008 0.729156H6.41675C6.65592 0.729156 6.85425 0.92749 6.85425 1.16666C6.85425 1.40582 6.65592 1.60416 6.41675 1.60416H5.25008C2.56091 1.60416 1.60425 2.56082 1.60425 5.24999V8.74999C1.60425 11.4392 2.56091 12.3958 5.25008 12.3958H8.75008C11.4392 12.3958 12.3959 11.4392 12.3959 8.74999V7.58332C12.3959 7.34416 12.5942 7.14582 12.8334 7.14582C13.0726 7.14582 13.2709 7.34416 13.2709 7.58332V8.74999C13.2709 11.9175 11.9176 13.2708 8.75008 13.2708Z" fill="#1777E2"/>
</svg>
