<svg width="40" height="40" viewBox="0 0 40 40" fill="none" xmlns="http://www.w3.org/2000/svg">
<circle cx="19.5001" cy="20" r="19.0909" fill="#E29D17"/>
<g filter="url(#filter0_d_55_2461)">
<path d="M38.591 20C38.591 30.5436 30.0437 39.0909 19.5001 39.0909C8.95647 39.0909 0.40918 30.5436 0.40918 20C0.40918 9.45638 8.95647 0.909088 19.5001 0.909088C30.0437 0.909088 38.591 9.45638 38.591 20ZM2.67675 20C2.67675 29.2913 10.2088 36.8233 19.5001 36.8233C28.7914 36.8233 36.3234 29.2913 36.3234 20C36.3234 10.7087 28.7914 3.17666 19.5001 3.17666C10.2088 3.17666 2.67675 10.7087 2.67675 20Z" fill="#A06B05"/>
</g>
<g clip-path="url(#clip0_55_2461)">
<path d="M20.749 27.9231C20.7718 25.5867 20.1795 23.6868 19.4261 23.6794C18.6726 23.672 18.0432 25.5601 18.0204 27.8964C17.9976 30.2327 18.5899 32.1327 19.3433 32.1401C20.0968 32.1474 20.7262 30.2594 20.749 27.9231Z" fill="white"/>
<path d="M16.3792 27.3924C17.6616 25.4394 18.1906 23.5208 17.5608 23.1072C16.9309 22.6936 15.3806 23.9416 14.0982 25.8947C12.8158 27.8478 12.2868 29.7663 12.9166 30.1799C13.5465 30.5935 15.0967 29.3455 16.3792 27.3924Z" fill="white"/>
<path d="M12.9846 24.5903C15.1194 23.6407 16.6018 22.3128 16.2955 21.6243C15.9893 20.9358 14.0104 21.1475 11.8756 22.0971C9.74082 23.0467 8.25848 24.3746 8.56473 25.0631C8.87097 25.7516 10.8498 25.5399 12.9846 24.5903Z" fill="white"/>
<path d="M16.0392 19.6936C16.1539 18.9489 14.3747 18.057 12.0655 17.7015C9.75621 17.3461 7.79126 17.6617 7.67663 18.4065C7.562 19.1512 9.34111 20.043 11.6504 20.3985C13.9596 20.7539 15.9246 20.4383 16.0392 19.6936Z" fill="white"/>
<path d="M16.8684 17.9194C17.3674 17.3548 16.3526 15.6428 14.6019 14.0955C12.8512 12.5483 11.0275 11.7517 10.5285 12.3163C10.0295 12.8809 11.0442 14.5929 12.7949 16.1402C14.5456 17.6875 16.3694 18.4841 16.8684 17.9194Z" fill="white"/>
<path d="M18.5195 16.8826C19.2446 16.6774 19.3166 14.6885 18.6805 12.4404C18.0443 10.1922 16.9408 8.53598 16.2157 8.74115C15.4907 8.94632 15.4187 10.9352 16.0548 13.1834C16.691 15.4315 17.7945 17.0877 18.5195 16.8826Z" fill="white"/>
<path d="M23.0031 13.2533C23.6835 11.0181 23.6507 9.02821 22.9298 8.80878C22.209 8.58935 21.073 10.2235 20.3926 12.4587C19.7123 14.6939 19.7451 16.6838 20.4659 16.9032C21.1868 17.1226 22.3227 15.4885 23.0031 13.2533Z" fill="white"/>
<path d="M26.2068 16.2735C27.9875 14.7608 29.0355 13.0689 28.5476 12.4947C28.0597 11.9204 26.2207 12.6812 24.4402 14.1939C22.6595 15.7067 21.6115 17.3986 22.0994 17.9728C22.5873 18.5471 24.4263 17.7863 26.2068 16.2735Z" fill="white"/>
<path d="M27.2663 20.5476C29.5821 20.2377 31.3785 19.3811 31.2785 18.6342C31.1786 17.8874 29.2203 17.5331 26.9044 17.8429C24.5886 18.1527 22.7922 19.0093 22.8922 19.7562C22.9921 20.5031 24.9504 20.8574 27.2663 20.5476Z" fill="white"/>
<path d="M30.2536 25.2765C30.5734 24.5943 29.1175 23.2374 27.0018 22.2459C24.8862 21.2544 22.9119 21.0037 22.5921 21.686C22.2724 22.3684 23.7282 23.7252 25.8439 24.7167C27.9595 25.7082 29.9338 25.9589 30.2536 25.2765Z" fill="white"/>
<path d="M25.8035 30.3109C26.4413 29.9098 25.9503 27.9812 24.7066 26.0032C23.463 24.0252 21.9376 22.747 21.2997 23.148C20.6618 23.5491 21.1529 25.4777 22.3966 27.4557C23.6402 29.4337 25.1656 30.712 25.8035 30.3109Z" fill="white"/>
</g>
<defs>
<filter id="filter0_d_55_2461" x="0.40918" y="0.909088" width="38.6819" height="38.6818" filterUnits="userSpaceOnUse" color-interpolation-filters="sRGB">
<feFlood flood-opacity="0" result="BackgroundImageFix"/>
<feColorMatrix in="SourceAlpha" type="matrix" values="0 0 0 0 0 0 0 0 0 0 0 0 0 0 0 0 0 0 127 0" result="hardAlpha"/>
<feOffset dx="0.5" dy="0.5"/>
<feComposite in2="hardAlpha" operator="out"/>
<feColorMatrix type="matrix" values="0 0 0 0 0.341667 0 0 0 0 0.254532 0 0 0 0 0.0868403 0 0 0 1 0"/>
<feBlend mode="normal" in2="BackgroundImageFix" result="effect1_dropShadow_55_2461"/>
<feBlend mode="normal" in="SourceGraphic" in2="effect1_dropShadow_55_2461" result="shape"/>
</filter>
<clipPath id="clip0_55_2461">
<rect width="25.4545" height="25.4545" fill="white" transform="translate(6.7334 7.4884)"/>
</clipPath>
</defs>
</svg>
