<svg width="36" height="36" viewBox="0 0 36 36" fill="none" xmlns="http://www.w3.org/2000/svg">
<rect x="0.5" y="0.5" width="35" height="35" rx="17.5" fill="#111213"/>
<path d="M25.828 9.56937L19.0483 14.6541L20.3021 11.6542L25.828 9.56937Z" fill="#E2761B" stroke="#E2761B" stroke-linecap="round" stroke-linejoin="round"/>
<path d="M10.161 9.56937L16.9026 14.6743L15.7073 11.6428L10.161 9.56937ZM23.4052 21.2916L21.5951 24.07L25.468 25.1375L26.5813 21.3532L23.4052 21.2916ZM9.44385 21.3532L10.5504 25.1375L14.4232 24.07L12.6132 21.2916L9.44385 21.3532Z" fill="#E4761B" stroke="#E4761B" stroke-linecap="round" stroke-linejoin="round"/>
<path d="M14.2225 16.5965L13.1475 18.2322L16.9783 18.4033L16.8422 14.2626L14.2225 16.5965ZM21.7957 16.5965L19.142 14.2147L19.0535 18.4033L22.8775 18.2322L21.7957 16.5965ZM14.4403 24.0703L16.7401 22.941L14.7533 21.3805L14.4403 24.0703ZM19.2781 22.941L21.5847 24.0703L21.2649 21.3805L19.2781 22.941Z" fill="#E4761B" stroke="#E4761B" stroke-linecap="round" stroke-linejoin="round"/>
<path d="M21.5594 24.0619L19.2489 22.9404L19.4329 24.4426L19.4125 25.0747L21.5594 24.0619ZM14.4031 24.0619L16.55 25.0747L16.5363 24.4426L16.7067 22.9404L14.4031 24.0619Z" fill="#D7C1B3" stroke="#D7C1B3" stroke-linecap="round" stroke-linejoin="round"/>
<path d="M14.3934 24.0703L14.7215 21.2916L12.5825 21.3532L14.3934 24.0703ZM21.2408 21.2916L21.5688 24.0703L23.3798 21.3532L21.2408 21.2916ZM22.8672 18.2323L19.0267 18.4034L19.382 20.3813L19.9492 19.1904L21.316 19.8133L22.8672 18.2323ZM14.6531 19.8133L16.0199 19.1904L16.5802 20.3813L16.9424 18.4034L13.095 18.2323L14.6531 19.8133Z" fill="#CD6116" stroke="#CD6116" stroke-linecap="round" stroke-linejoin="round"/>
<path d="M16.2901 19.1927L14.3635 18.6238L15.723 18L16.2901 19.1927ZM19.0843 19.1927L19.6513 18L21.0176 18.6238L19.0843 19.1927Z" fill="#233447"/>
<path d="M13.1475 18.2323L14.7533 21.3624L14.6988 19.8041L13.1475 18.2323ZM21.333 19.8041L21.2649 21.3624L22.8775 18.2323L21.333 19.8041ZM16.9783 18.4024L16.6176 20.3689L17.0667 22.6893L17.1688 19.634L16.9783 18.4024ZM19.0535 18.4024L18.8698 19.6272L18.9515 22.6893L19.4074 20.3689L19.0535 18.4024Z" fill="#E4751F" stroke="#E4751F" stroke-linecap="round" stroke-linejoin="round"/>
<path d="M19.3768 20.3717L18.9195 22.7137L19.2471 22.9404L21.2399 21.3744L21.3082 19.8016L19.3768 20.3717ZM14.6541 19.8016L14.7087 21.3744L16.7015 22.9404L17.0291 22.7137L16.5786 20.3717L14.6541 19.8016Z" fill="#F6851B" stroke="#F6851B" stroke-linecap="round" stroke-linejoin="round"/>
<path d="M19.4125 25.0629L19.4329 24.4434L19.2626 24.2968H16.6931L16.5363 24.4434L16.55 25.0629L14.4031 24.0703L15.1528 24.6699L16.6726 25.7025H19.283L20.8097 24.6699L21.5594 24.0703L19.4125 25.0629Z" fill="#C0AD9E" stroke="#C0AD9E" stroke-linecap="round" stroke-linejoin="round"/>
<path d="M19.2415 22.9176L18.9154 22.6893H17.0333L16.7072 22.9176L16.5374 24.447L16.6936 24.2947H19.2551L19.425 24.447L19.2415 22.9176Z" fill="#161616" stroke="#161616" stroke-linecap="round" stroke-linejoin="round"/>
<path d="M26.1273 14.9284L26.7069 12.1501L25.8409 9.56937L19.281 14.4313L21.804 16.5627L25.3704 17.6045L26.1614 16.6852L25.8205 16.4401L26.366 15.943L25.9432 15.6162L26.4887 15.2008L26.1273 14.9284ZM9.31836 12.1501L9.89798 14.9284L9.52975 15.2008L10.0753 15.6162L9.65931 15.943L10.2048 16.4401L9.86388 16.6852L10.6481 17.6045L14.2144 16.5627L16.7375 14.4313L10.1776 9.56937L9.31836 12.1501Z" fill="#763D16" stroke="#763D16" stroke-linecap="round" stroke-linejoin="round"/>
<path d="M25.3792 17.6294L21.8069 16.5847L22.8929 18.2167L21.2741 21.3577L23.4052 21.3304H26.5813L25.3792 17.6294ZM14.2046 16.5847L10.6323 17.6294L9.44385 21.3304H12.6132L14.7374 21.3577L13.1254 18.2167L14.2046 16.5847ZM19.0542 18.3874L19.2796 14.4474L20.3178 11.6409H15.7073L16.7319 14.4474L16.9709 18.3874L17.0529 19.6301L17.0597 22.6893H18.9518L18.9654 19.6301L19.0542 18.3874Z" fill="#F6851B" stroke="#F6851B" stroke-linecap="round" stroke-linejoin="round"/>
<rect x="0.5" y="0.5" width="35" height="35" rx="17.5" stroke="#1777E2"/>
</svg>
