<svg width="22" height="22" viewBox="0 0 22 22" fill="none" xmlns="http://www.w3.org/2000/svg">
<path d="M11.9165 10.9084H6.4165C6.04067 10.9084 5.729 10.5967 5.729 10.2209C5.729 9.84502 6.04067 9.53336 6.4165 9.53336H11.9165C12.2923 9.53336 12.604 9.84502 12.604 10.2209C12.604 10.5967 12.2923 10.9084 11.9165 10.9084Z" fill="white"/>
<path d="M1.8335 10.9084C1.45766 10.9084 1.146 10.5968 1.146 10.2209V5.98593C1.146 3.74009 2.97016 1.91592 5.216 1.91592H10.3677C12.7235 1.91592 14.4377 3.48342 14.4377 5.63759C14.4377 6.01342 14.126 6.32509 13.7502 6.32509C13.3743 6.32509 13.0627 6.01342 13.0627 5.63759C13.0627 4.02426 11.6602 3.29092 10.3677 3.29092H5.216C3.731 3.29092 2.521 4.50093 2.521 5.98593V10.2209C2.521 10.6059 2.20933 10.9084 1.8335 10.9084Z" fill="white"/>
<path d="M14.6668 20.075H5.50016C3.0985 20.075 1.146 18.1225 1.146 15.7208V9.30418C1.146 6.90251 3.0985 4.95001 5.50016 4.95001H14.6668C17.0685 4.95001 19.021 6.90251 19.021 9.30418V10.6333C19.021 11.0091 18.7093 11.3208 18.3335 11.3208H17.3435C17.0226 11.3208 16.7293 11.44 16.5185 11.66L16.5093 11.6691C16.2068 11.9716 16.0876 12.3933 16.1976 12.8058C16.3351 13.3191 16.876 13.695 17.481 13.695H18.3335C18.7093 13.695 19.021 14.0067 19.021 14.3825V15.7117C19.021 18.1225 17.0685 20.075 14.6668 20.075ZM5.50016 6.32501C3.85933 6.32501 2.521 7.66335 2.521 9.30418V15.7208C2.521 17.3617 3.85933 18.7 5.50016 18.7H14.6668C16.3077 18.7 17.646 17.3617 17.646 15.7208V15.0792H17.481C16.2435 15.0792 15.171 14.3 14.8685 13.1725C14.6301 12.2833 14.8868 11.3391 15.5377 10.6975C16.0143 10.2116 16.656 9.9458 17.3435 9.9458H17.646V9.30418C17.646 7.66335 16.3077 6.32501 14.6668 6.32501H5.50016Z" fill="white"/>
<path d="M19.2222 15.0792H17.4531C16.0689 15.0792 14.8956 14.0525 14.7856 12.7325C14.7123 11.9717 14.9873 11.2291 15.5373 10.6883C15.9956 10.2116 16.6464 9.9458 17.3339 9.9458H19.2131C20.1114 9.9458 20.8447 10.67 20.8447 11.5683V13.4566C20.8539 14.355 20.1206 15.0792 19.2222 15.0792ZM17.3431 11.3208C17.0222 11.3208 16.7289 11.44 16.5181 11.66C16.2523 11.9166 16.1239 12.265 16.1606 12.6133C16.2064 13.2183 16.7931 13.7042 17.4531 13.7042H19.2222C19.3597 13.7042 19.4789 13.5941 19.4789 13.4566V11.5683C19.4789 11.4308 19.3597 11.3208 19.2222 11.3208H17.3431Z" fill="white"/>
</svg>
