<svg width="17" height="17" viewBox="0 0 17 17" fill="none" xmlns="http://www.w3.org/2000/svg">
<circle cx="8" cy="8" r="8" fill="#E29D17"/>
<g filter="url(#filter0_d_87_2161)">
<path d="M16 8C16 12.4183 12.4183 16 8 16C3.58172 16 0 12.4183 0 8C0 3.58172 3.58172 0 8 0C12.4183 0 16 3.58172 16 8ZM0.95022 8C0.95022 11.8935 4.10651 15.0498 8 15.0498C11.8935 15.0498 15.0498 11.8935 15.0498 8C15.0498 4.10651 11.8935 0.95022 8 0.95022C4.10651 0.95022 0.95022 4.10651 0.95022 8Z" fill="#A06B05"/>
</g>
<g clip-path="url(#clip0_87_2161)">
<path d="M8.52355 11.3202C8.53313 10.3411 8.28492 9.54497 7.96919 9.54188C7.65343 9.53881 7.38971 10.33 7.38015 11.309C7.37057 12.2881 7.61879 13.0842 7.93452 13.0873C8.25027 13.0904 8.514 12.2992 8.52355 11.3202Z" fill="white"/>
<path d="M6.69224 11.0978C7.22965 10.2794 7.45132 9.4754 7.18738 9.30209C6.92343 9.12878 6.27381 9.65175 5.73642 10.4702C5.19901 11.2886 4.97734 12.0926 5.24127 12.2659C5.50523 12.4392 6.15483 11.9162 6.69224 11.0978Z" fill="white"/>
<path d="M5.26982 9.92356C6.16441 9.52565 6.78557 8.9692 6.65723 8.68068C6.52891 8.39217 5.69968 8.48088 4.80509 8.87881C3.91051 9.27672 3.28934 9.83317 3.41767 10.1217C3.546 10.4102 4.37523 10.3215 5.26982 9.92356Z" fill="white"/>
<path d="M6.54986 7.87162C6.5979 7.55954 5.85236 7.1858 4.88468 7.03685C3.91698 6.8879 3.09357 7.02017 3.04553 7.33225C2.9975 7.64434 3.74303 8.01805 4.71073 8.167C5.67841 8.31595 6.50183 8.18369 6.54986 7.87162Z" fill="white"/>
<path d="M6.89735 7.12815C7.10646 6.89156 6.68125 6.17414 5.94762 5.52576C5.21398 4.87738 4.44974 4.54356 4.24064 4.78016C4.03153 5.01677 4.45675 5.73419 5.19039 6.38257C5.92402 7.03095 6.68827 7.36476 6.89735 7.12815Z" fill="white"/>
<path d="M7.58922 6.69368C7.89305 6.60771 7.92323 5.77428 7.65665 4.83219C7.39007 3.89009 6.92765 3.19606 6.62382 3.28204C6.31999 3.36802 6.2898 4.20143 6.55638 5.14354C6.82297 6.08562 7.28539 6.77966 7.58922 6.69368Z" fill="white"/>
<path d="M9.468 5.17286C9.75312 4.2362 9.73938 3.40235 9.4373 3.3104C9.13522 3.21845 8.65921 3.90322 8.37409 4.83988C8.08899 5.77653 8.10273 6.61039 8.40481 6.70233C8.70689 6.79428 9.1829 6.10952 9.468 5.17286Z" fill="white"/>
<path d="M10.8105 6.43849C11.5567 5.80457 11.9959 5.0956 11.7914 4.85497C11.587 4.61433 10.8164 4.93315 10.0702 5.56705C9.32404 6.20097 8.88489 6.90994 9.08933 7.15058C9.29377 7.39122 10.0644 7.07241 10.8105 6.43849Z" fill="white"/>
<path d="M11.2544 8.22949C12.2249 8.09965 12.9776 7.7407 12.9357 7.42772C12.8939 7.11476 12.0732 6.9663 11.1028 7.09611C10.1324 7.22594 9.37959 7.5849 9.42147 7.89788C9.46334 8.21084 10.284 8.35932 11.2544 8.22949Z" fill="white"/>
<path d="M12.5063 10.2111C12.6403 9.92522 12.0302 9.35662 11.1437 8.94113C10.2571 8.52565 9.42979 8.42062 9.2958 8.70653C9.1618 8.99246 9.77187 9.56106 10.6584 9.97655C11.545 10.392 12.3723 10.4971 12.5063 10.2111Z" fill="white"/>
<path d="M10.6415 12.3208C10.9088 12.1527 10.703 11.3446 10.1818 10.5157C9.66069 9.68683 9.0215 9.15117 8.7542 9.31923C8.48689 9.4873 8.69267 10.2955 9.21382 11.1244C9.73497 11.9532 10.3742 12.4889 10.6415 12.3208Z" fill="white"/>
</g>
<defs>
<filter id="filter0_d_87_2161" x="0" y="0" width="16.5" height="16.5" filterUnits="userSpaceOnUse" color-interpolation-filters="sRGB">
<feFlood flood-opacity="0" result="BackgroundImageFix"/>
<feColorMatrix in="SourceAlpha" type="matrix" values="0 0 0 0 0 0 0 0 0 0 0 0 0 0 0 0 0 0 127 0" result="hardAlpha"/>
<feOffset dx="0.5" dy="0.5"/>
<feComposite in2="hardAlpha" operator="out"/>
<feColorMatrix type="matrix" values="0 0 0 0 0.341667 0 0 0 0 0.254532 0 0 0 0 0.0868403 0 0 0 1 0"/>
<feBlend mode="normal" in2="BackgroundImageFix" result="effect1_dropShadow_87_2161"/>
<feBlend mode="normal" in="SourceGraphic" in2="effect1_dropShadow_87_2161" result="shape"/>
</filter>
<clipPath id="clip0_87_2161">
<rect width="10.6667" height="10.6667" fill="white" transform="translate(2.65027 2.75708)"/>
</clipPath>
</defs>
</svg>
