<svg width="41" height="40" viewBox="0 0 41 40" fill="none" xmlns="http://www.w3.org/2000/svg">
<path d="M36.156 3.13873L22.5967 13.3082L25.1041 7.30836L36.156 3.13873Z" fill="#E2761B" stroke="#E2761B" stroke-linecap="round" stroke-linejoin="round"/>
<path d="M4.82208 3.13873L18.3053 13.3487L15.9147 7.28567L4.82208 3.13873ZM31.3104 26.5833L27.6903 32.1399L35.4359 34.275L37.6626 26.7065L31.3104 26.5833ZM3.3877 26.7065L5.60074 34.275L13.3464 32.1399L9.72631 26.5833L3.3877 26.7065Z" fill="#E4761B" stroke="#E4761B" stroke-linecap="round" stroke-linejoin="round"/>
<path d="M12.9451 17.1929L10.7949 20.4644L18.4565 20.8067L18.1843 12.5252L12.9451 17.1929ZM28.0913 17.1929L22.784 12.4294L22.6071 20.8067L30.2551 20.4644L28.0913 17.1929ZM13.3805 32.1406L17.9802 29.882L14.0065 26.7611L13.3805 32.1406ZM23.0562 29.882L27.6694 32.1406L27.0298 26.7611L23.0562 29.882Z" fill="#E4761B" stroke="#E4761B" stroke-linecap="round" stroke-linejoin="round"/>
<path d="M27.6185 32.1238L22.9976 29.8807L23.3656 32.8851L23.3247 34.1494L27.6185 32.1238ZM13.3059 32.1238L17.5997 34.1494L17.5724 32.8851L17.9132 29.8807L13.3059 32.1238Z" fill="#D7C1B3" stroke="#D7C1B3" stroke-linecap="round" stroke-linejoin="round"/>
<path d="M13.2869 32.1406L13.9429 26.5832L9.66504 26.7064L13.2869 32.1406ZM26.9816 26.5832L27.6377 32.1406L31.2595 26.7064L26.9816 26.5832ZM30.2345 20.4645L22.5534 20.8067L23.2641 24.7627L24.3985 22.3809L27.132 23.6265L30.2345 20.4645ZM13.8063 23.6265L16.5397 22.3809L17.6605 24.7627L18.3848 20.8067L10.6901 20.4645L13.8063 23.6265Z" fill="#CD6116" stroke="#CD6116" stroke-linecap="round" stroke-linejoin="round"/>
<path d="M17.0804 22.3854L13.2273 21.2476L15.9463 20L17.0804 22.3854ZM22.6688 22.3854L23.8028 20L26.5355 21.2476L22.6688 22.3854Z" fill="#233447"/>
<path d="M10.7949 20.4645L14.0065 26.7248L13.8977 23.6083L10.7949 20.4645ZM27.1659 23.6083L27.0298 26.7248L30.2551 20.4645L27.1659 23.6083ZM18.4565 20.8048L17.7353 24.7378L18.6334 29.3785L18.8375 23.268L18.4565 20.8048ZM22.6071 20.8048L22.2397 23.2544L22.403 29.3785L23.3147 24.7378L22.6071 20.8048Z" fill="#E4751F" stroke="#E4751F" stroke-linecap="round" stroke-linejoin="round"/>
<path d="M23.2535 24.7434L22.339 29.4274L22.9942 29.8807L26.9798 26.7489L27.1163 23.6033L23.2535 24.7434ZM13.8081 23.6033L13.9173 26.7489L17.9029 29.8807L18.5581 29.4274L17.6573 24.7434L13.8081 23.6033Z" fill="#F6851B" stroke="#F6851B" stroke-linecap="round" stroke-linejoin="round"/>
<path d="M23.3247 34.1258L23.3656 32.8867L23.0249 32.5936H17.8859L17.5724 32.8867L17.5997 34.1258L13.3059 32.1406L14.8053 33.3397L17.8451 35.4049H23.0658L26.1191 33.3397L27.6185 32.1406L23.3247 34.1258Z" fill="#C0AD9E" stroke="#C0AD9E" stroke-linecap="round" stroke-linejoin="round"/>
<path d="M22.9831 29.8353L22.3308 29.3785H18.5667L17.9144 29.8353L17.5747 32.8939L17.8872 32.5894H23.0103L23.35 32.8939L22.9831 29.8353Z" fill="#161616" stroke="#161616" stroke-linecap="round" stroke-linejoin="round"/>
<path d="M36.7544 13.8568L37.9136 8.3003L36.1816 3.13873L23.0617 12.8626L28.1078 17.1253L35.2406 19.209L36.8226 17.3705L36.1407 16.8802L37.2317 15.886L36.3862 15.2323L37.4772 14.4016L36.7544 13.8568ZM3.13647 8.3003L4.29571 13.8568L3.55926 14.4016L4.6503 15.2323L3.81838 15.886L4.90943 16.8802L4.22752 17.3705L5.7959 19.209L12.9286 17.1253L17.9747 12.8626L4.85488 3.13873L3.13647 8.3003Z" fill="#763D16" stroke="#763D16" stroke-linecap="round" stroke-linejoin="round"/>
<path d="M35.2583 19.2589L28.1137 17.1694L30.2858 20.4333L27.0482 26.7155L31.3104 26.6608H37.6626L35.2583 19.2589ZM12.9093 17.1694L5.76467 19.2589L3.3877 26.6608H9.72631L13.9748 26.7155L10.7509 20.4333L12.9093 17.1694ZM22.6084 20.7748L23.0593 12.8948L25.1357 7.28186H15.9147L17.9638 12.8948L18.4419 20.7748L18.6058 23.2603L18.6195 29.3785H22.4035L22.4309 23.2603L22.6084 20.7748Z" fill="#F6851B" stroke="#F6851B" stroke-linecap="round" stroke-linejoin="round"/>
</svg>
