<svg width="41" height="40" viewBox="0 0 41 40" fill="none" xmlns="http://www.w3.org/2000/svg">
<path d="M8.68865 12.5292C15.2119 6.14245 25.788 6.14245 32.3113 12.5292L33.0963 13.2979C33.4225 13.6172 33.4225 14.1349 33.0963 14.4543L30.4107 17.0837C30.2476 17.2434 29.9832 17.2434 29.8202 17.0837L28.7398 16.0259C24.1891 11.5704 16.8108 11.5704 12.2601 16.0259L11.1031 17.1587C10.94 17.3184 10.6756 17.3184 10.5126 17.1587L7.82696 14.5293C7.5008 14.2099 7.5008 13.6922 7.82696 13.3729L8.68865 12.5292ZM37.8653 17.9671L40.2554 20.3073C40.5816 20.6266 40.5816 21.1444 40.2554 21.4638L29.478 32.0159C29.1518 32.3353 28.623 32.3353 28.2968 32.0159L20.6477 24.5267C20.5661 24.4469 20.4339 24.4469 20.3523 24.5267L12.7033 32.0159C12.3771 32.3353 11.8484 32.3353 11.5222 32.0159L0.744375 21.4636C0.418216 21.1443 0.418216 20.6265 0.744375 20.3071L3.13456 17.967C3.46072 17.6476 3.98953 17.6476 4.31569 17.967L11.965 25.4563C12.0466 25.5361 12.1788 25.5361 12.2603 25.4563L19.9092 17.967C20.2354 17.6476 20.7642 17.6476 21.0903 17.9669L28.7397 25.4563C28.8212 25.5361 28.9534 25.5361 29.0349 25.4563L36.6842 17.9671C37.0103 17.6478 37.5391 17.6478 37.8653 17.9671Z" fill="#3B99FC"/>
</svg>
