<svg width="29" height="29" viewBox="0 0 29 29" fill="none" xmlns="http://www.w3.org/2000/svg">
<circle cx="14" cy="14" r="14" fill="#1777E2"/>
<g filter="url(#filter0_d_118_1983)">
<path d="M28 14C28 21.732 21.732 28 14 28C6.26801 28 0 21.732 0 14C0 6.26801 6.26801 0 14 0C21.732 0 28 6.26801 28 14ZM1.66288 14C1.66288 20.8136 7.1864 26.3371 14 26.3371C20.8136 26.3371 26.3371 20.8136 26.3371 14C26.3371 7.1864 20.8136 1.66288 14 1.66288C7.1864 1.66288 1.66288 7.1864 1.66288 14Z" fill="#073D79"/>
</g>
<path d="M14.916 19.8102C14.9327 18.0969 14.4984 16.7036 13.9458 16.6982C13.3933 16.6928 12.9317 18.0774 12.915 19.7907C12.8983 21.504 13.3326 22.8973 13.8852 22.9027C14.4377 22.9081 14.8992 21.5236 14.916 19.8102Z" fill="white"/>
<path d="M11.7114 19.4211C12.6519 17.9889 13.0398 16.5819 12.578 16.2786C12.116 15.9753 10.9792 16.8905 10.0388 18.3228C9.0983 19.755 8.71037 21.1619 9.17226 21.4653C9.63418 21.7686 10.771 20.8534 11.7114 19.4211Z" fill="white"/>
<path d="M9.22181 17.3662C10.7873 16.6699 11.8744 15.6961 11.6498 15.1912C11.4252 14.6863 9.97408 14.8415 8.40854 15.5379C6.84302 16.2342 5.75598 17.208 5.98056 17.7129C6.20513 18.2178 7.65629 18.0626 9.22181 17.3662Z" fill="white"/>
<path d="M11.4621 13.7753C11.5462 13.2291 10.2415 12.5751 8.54804 12.3144C6.85456 12.0538 5.41359 12.2852 5.32953 12.8314C5.24547 13.3775 6.55015 14.0315 8.24362 14.2922C9.93707 14.5529 11.3781 14.3214 11.4621 13.7753Z" fill="white"/>
<path d="M12.0701 12.4743C12.436 12.0602 11.6919 10.8047 10.4081 9.67008C9.1242 8.53541 7.78677 7.95124 7.42084 8.36529C7.05491 8.77934 7.79904 10.0348 9.08291 11.1695C10.3668 12.3042 11.7042 12.8883 12.0701 12.4743Z" fill="white"/>
<path d="M13.2808 11.7139C13.8125 11.5634 13.8653 10.1049 13.3988 8.45625C12.9323 6.80758 12.1231 5.59304 11.5913 5.74349C11.0596 5.89395 11.0068 7.35243 11.4733 9.00112C11.9399 10.6498 12.7491 11.8643 13.2808 11.7139Z" fill="white"/>
<path d="M16.5688 9.05242C17.0677 7.41326 17.0437 5.95402 16.515 5.79311C15.9864 5.6322 15.1534 6.83054 14.6544 8.4697C14.1555 10.1088 14.1795 11.5681 14.7082 11.729C15.2368 11.8899 16.0698 10.6916 16.5688 9.05242Z" fill="white"/>
<path d="M18.9182 11.2673C20.224 10.1579 20.9926 8.9172 20.6348 8.49609C20.277 8.07497 18.9284 8.6329 17.6227 9.74223C16.3169 10.8516 15.5483 12.0923 15.9061 12.5134C16.2639 12.9345 17.6125 12.3766 18.9182 11.2673Z" fill="white"/>
<path d="M19.695 14.4016C21.3933 14.1743 22.7106 13.5462 22.6373 12.9985C22.564 12.4508 21.1279 12.191 19.4296 12.4181C17.7313 12.6454 16.414 13.2735 16.4873 13.8212C16.5606 14.3689 17.9967 14.6288 19.695 14.4016Z" fill="white"/>
<path d="M21.8861 17.8694C22.1205 17.3691 21.0529 16.3741 19.5014 15.647C17.95 14.9199 16.5021 14.7361 16.2676 15.2364C16.0332 15.7368 17.1008 16.7318 18.6523 17.4589C20.2037 18.186 21.6516 18.3698 21.8861 17.8694Z" fill="white"/>
<path d="M18.6224 21.5613C19.0902 21.2672 18.7301 19.8529 17.8181 18.4024C16.9061 16.9518 15.7875 16.0144 15.3197 16.3085C14.8519 16.6027 15.212 18.017 16.124 19.4675C17.0361 20.918 18.1546 21.8555 18.6224 21.5613Z" fill="white"/>
<defs>
<filter id="filter0_d_118_1983" x="0" y="0" width="28.5" height="28.5" filterUnits="userSpaceOnUse" color-interpolation-filters="sRGB">
<feFlood flood-opacity="0" result="BackgroundImageFix"/>
<feColorMatrix in="SourceAlpha" type="matrix" values="0 0 0 0 0 0 0 0 0 0 0 0 0 0 0 0 0 0 127 0" result="hardAlpha"/>
<feOffset dx="0.5" dy="0.5"/>
<feComposite in2="hardAlpha" operator="out"/>
<feColorMatrix type="matrix" values="0 0 0 0 0.109861 0 0 0 0 0.168348 0 0 0 0 0.233333 0 0 0 1 0"/>
<feBlend mode="normal" in2="BackgroundImageFix" result="effect1_dropShadow_118_1983"/>
<feBlend mode="normal" in="SourceGraphic" in2="effect1_dropShadow_118_1983" result="shape"/>
</filter>
</defs>
</svg>
