<svg width="131" height="25" viewBox="0 0 131 25" fill="none" xmlns="http://www.w3.org/2000/svg">
<rect x="13" y="11" width="113" height="2" rx="1" fill="#272727"/>
<circle cx="12.5" cy="12.5" r="12.5" fill="#1777E2"/>
<path d="M10.0602 17V15.432H12.3562V9.762H10.0462V8.586C10.3542 8.558 10.7088 8.488 11.1102 8.376C11.5208 8.25467 11.9315 8.11 12.3422 7.942C12.7528 7.76467 13.1215 7.578 13.4482 7.382H14.3162V15.432H16.4582V17H10.0602Z" fill="white"/>
<circle cx="118.5" cy="12.5" r="12" fill="#141516" stroke="#272727"/>
<path d="M115.044 17V16.496C115.044 16.076 115.119 15.6933 115.268 15.348C115.417 15.0027 115.623 14.6853 115.884 14.396C116.145 14.1067 116.435 13.8313 116.752 13.57C117.069 13.3087 117.396 13.0567 117.732 12.814C118.115 12.5247 118.474 12.24 118.81 11.96C119.155 11.68 119.435 11.3813 119.65 11.064C119.865 10.7373 119.972 10.378 119.972 9.986C119.972 9.79933 119.925 9.61267 119.832 9.426C119.739 9.23933 119.589 9.08533 119.384 8.964C119.188 8.83333 118.922 8.768 118.586 8.768C118.241 8.768 117.956 8.82867 117.732 8.95C117.508 9.062 117.335 9.22533 117.214 9.44C117.102 9.64533 117.046 9.902 117.046 10.21V10.714H115.17C115.161 10.6673 115.151 10.602 115.142 10.518C115.133 10.434 115.128 10.3313 115.128 10.21C115.128 9.52867 115.282 8.96867 115.59 8.53C115.907 8.09133 116.332 7.76467 116.864 7.55C117.405 7.33533 118.017 7.228 118.698 7.228C119.314 7.228 119.827 7.31667 120.238 7.494C120.658 7.662 120.994 7.89067 121.246 8.18C121.498 8.46 121.675 8.768 121.778 9.104C121.89 9.43067 121.946 9.748 121.946 10.056C121.946 10.4947 121.867 10.896 121.708 11.26C121.549 11.624 121.335 11.9647 121.064 12.282C120.793 12.5993 120.471 12.9073 120.098 13.206C119.725 13.4953 119.328 13.7847 118.908 14.074C118.693 14.2233 118.488 14.368 118.292 14.508C118.105 14.648 117.942 14.7833 117.802 14.914C117.671 15.0353 117.569 15.1567 117.494 15.278H122.016V17H115.044Z" fill="#949494"/>
</svg>
