<svg width="28" height="28" viewBox="0 0 28 28" fill="none" xmlns="http://www.w3.org/2000/svg">
<path d="M22.6357 4.80469H5.34766V20.5175H22.6357V4.80469Z" fill="white"/>
<path fill-rule="evenodd" clip-rule="evenodd" d="M27.9911 13.997C27.9911 21.7188 21.7274 27.9784 14.0005 27.9784C6.27361 27.9784 0.00976562 21.7188 0.00976562 13.997C0.00976562 6.2753 6.27361 0.015625 14.0005 0.015625C21.7274 0.015625 27.9911 6.2753 27.9911 13.997ZM10.0359 19.5609H7.32069C6.75015 19.5609 6.46832 19.5609 6.29648 19.451C6.11088 19.3308 5.99746 19.1316 5.98371 18.9117C5.97339 18.7092 6.11432 18.4618 6.39615 17.9672L13.1003 6.15803C13.3856 5.65656 13.5299 5.40583 13.7121 5.3131C13.908 5.2135 14.1417 5.2135 14.3376 5.3131C14.5198 5.40583 14.6641 5.65656 14.9494 6.15803L16.3276 8.56231L16.3347 8.57458C16.6428 9.11255 16.799 9.38537 16.8672 9.6717C16.9428 9.98426 16.9428 10.314 16.8672 10.6265C16.7985 10.9151 16.6438 11.1898 16.3311 11.736L12.8095 17.9569L12.8004 17.9728C12.4903 18.5152 12.3331 18.7901 12.1153 18.9975C11.8781 19.2243 11.5928 19.3891 11.2801 19.482C10.9948 19.5609 10.6752 19.5609 10.0359 19.5609ZM16.8927 19.5609H20.7832C21.3572 19.5609 21.646 19.5609 21.8179 19.4477C22.0035 19.3274 22.1203 19.1247 22.1307 18.905C22.1406 18.709 22.0027 18.4712 21.7326 18.0054C21.7233 17.9895 21.714 17.9734 21.7045 17.957L19.7556 14.6253L19.7335 14.5878C19.4596 14.125 19.3214 13.8913 19.1438 13.801C18.948 13.7014 18.7176 13.7014 18.5218 13.801C18.3431 13.8937 18.1987 14.1376 17.9134 14.6288L15.9716 17.9604L15.9649 17.9719C15.6806 18.4622 15.5386 18.7073 15.5488 18.9084C15.5626 19.1282 15.676 19.3308 15.8616 19.451C16.03 19.5609 16.3187 19.5609 16.8927 19.5609Z" fill="#E84142"/>
</svg>
