<svg width="164" height="28" viewBox="0 0 164 28" fill="none" xmlns="http://www.w3.org/2000/svg">
<path d="M15.4173 22.4781C15.4424 19.9081 14.7909 17.8182 13.9621 17.8101C13.1332 17.802 12.441 19.8788 12.4159 22.4488C12.3907 25.0188 13.0423 27.1088 13.8711 27.1168C14.6999 27.125 15.3922 25.0481 15.4173 22.4781Z" fill="#1777E2"/>
<path d="M10.6103 21.8944C12.021 19.746 12.6029 17.6356 11.91 17.1807C11.2171 16.7257 9.51188 18.0985 8.10124 20.2469C6.69054 22.3953 6.10865 24.5056 6.80148 24.9606C7.49437 25.4156 9.19957 24.0428 10.6103 21.8944Z" fill="#1777E2"/>
<path d="M6.8763 18.8121C9.2246 17.7676 10.8552 16.3069 10.5183 15.5495C10.1814 14.7922 8.0047 15.025 5.6564 16.0696C3.30811 17.1141 1.67755 18.5748 2.01441 19.3322C2.35128 20.0895 4.52802 19.8567 6.8763 18.8121Z" fill="#1777E2"/>
<path d="M10.2365 13.4257C10.3626 12.6065 8.40556 11.6254 5.8654 11.2344C3.32517 10.8435 1.16372 11.1907 1.03763 12.0099C0.911537 12.8291 2.86856 13.8101 5.40876 14.2011C7.94893 14.5921 10.1104 14.2449 10.2365 13.4257Z" fill="#1777E2"/>
<path d="M11.1485 11.4741C11.6974 10.8531 10.5812 8.96985 8.65541 7.26784C6.72963 5.56585 4.7235 4.68958 4.1746 5.31065C3.6257 5.93174 4.74189 7.81496 6.66769 9.51697C8.59348 11.219 10.5996 12.0952 11.1485 11.4741Z" fill="#1777E2"/>
<path d="M12.9648 10.3336C13.7623 10.1079 13.8416 7.92013 13.1418 5.44714C12.442 2.97413 11.2282 1.15231 10.4306 1.378C9.63305 1.60368 9.55381 3.7914 10.2536 6.26443C10.9534 8.73739 12.1672 10.5592 12.9648 10.3336Z" fill="#1777E2"/>
<path d="M17.8967 6.34138C18.6452 3.88265 18.6091 1.69379 17.8161 1.45242C17.0232 1.21105 15.7736 3.00857 15.0252 5.4673C14.2768 7.92601 14.3129 10.1149 15.1058 10.3562C15.8988 10.5976 17.1483 8.80012 17.8967 6.34138Z" fill="#1777E2"/>
<path d="M21.4208 9.66364C23.3795 7.9996 24.5323 6.13855 23.9956 5.50689C23.459 4.87521 21.4361 5.71211 19.4775 7.3761C17.5187 9.04014 16.366 10.9012 16.9026 11.5329C17.4393 12.1645 19.4622 11.3277 21.4208 9.66364Z" fill="#1777E2"/>
<path d="M22.586 14.3651C25.1335 14.0242 27.1094 13.082 26.9995 12.2604C26.8896 11.4389 24.7354 11.0492 22.188 11.3899C19.6406 11.7308 17.6646 12.673 17.7745 13.4946C17.8844 14.3161 20.0386 14.7059 22.586 14.3651Z" fill="#1777E2"/>
<path d="M25.8722 19.567C26.2239 18.8164 24.6225 17.3239 22.2952 16.2332C19.968 15.1426 17.7963 14.8669 17.4446 15.6174C17.0928 16.368 18.6943 17.8605 21.0215 18.9512C23.3487 20.0418 25.5204 20.3175 25.8722 19.567Z" fill="#1777E2"/>
<path d="M20.977 25.1048C21.6786 24.6636 21.1385 22.5421 19.7704 20.3663C18.4024 18.1905 16.7245 16.7844 16.0229 17.2256C15.3212 17.6668 15.8614 19.7883 17.2294 21.9641C18.5974 24.1398 20.2753 25.546 20.977 25.1048Z" fill="#1777E2"/>
<path d="M37.6912 20V7.652H40.3732V12.548H45.8452V7.652H48.5272V20H45.8452V14.816H40.3732V20H37.6912ZM54.8436 20V15.032L50.0556 7.652H53.1696L56.2296 12.62H56.3196L59.3616 7.652H62.2956L57.5436 15.032V20H54.8436ZM63.8475 20V7.652H68.8875C70.1715 7.652 71.2635 7.874 72.1635 8.318C73.0635 8.762 73.7535 9.44 74.2335 10.352C74.7255 11.252 74.9715 12.41 74.9715 13.826C74.9715 15.23 74.7255 16.388 74.2335 17.3C73.7535 18.212 73.0635 18.89 72.1635 19.334C71.2635 19.778 70.1715 20 68.8875 20H63.8475ZM66.5295 17.786H68.8695C69.4095 17.786 69.8895 17.708 70.3095 17.552C70.7295 17.396 71.0775 17.168 71.3535 16.868C71.6295 16.556 71.8395 16.172 71.9835 15.716C72.1275 15.248 72.1995 14.708 72.1995 14.096V13.556C72.1995 12.944 72.1275 12.41 71.9835 11.954C71.8395 11.486 71.6295 11.102 71.3535 10.802C71.0775 10.49 70.7295 10.256 70.3095 10.1C69.8895 9.932 69.4095 9.848 68.8695 9.848H66.5295V17.786ZM79.7215 20V9.902H75.7615V7.652H86.3995V9.902H82.4215V20H79.7215ZM91.744 20V7.652H98.17C99.058 7.652 99.796 7.82 100.384 8.156C100.984 8.48 101.434 8.942 101.734 9.542C102.046 10.13 102.202 10.832 102.202 11.648C102.202 12.464 102.04 13.178 101.716 13.79C101.404 14.39 100.942 14.858 100.33 15.194C99.718 15.53 98.968 15.698 98.08 15.698H94.426V20H91.744ZM94.426 13.502H97.72C98.284 13.502 98.716 13.34 99.016 13.016C99.328 12.692 99.484 12.242 99.484 11.666C99.484 11.27 99.418 10.94 99.286 10.676C99.154 10.412 98.956 10.208 98.692 10.064C98.44 9.92 98.116 9.848 97.72 9.848H94.426V13.502ZM103.78 20V10.532H105.85L106.048 12.008H106.174C106.294 11.696 106.45 11.414 106.642 11.162C106.834 10.898 107.074 10.688 107.362 10.532C107.65 10.376 107.986 10.298 108.37 10.298C108.574 10.298 108.76 10.322 108.928 10.37C109.096 10.406 109.222 10.442 109.306 10.478V12.746H108.532C108.16 12.746 107.83 12.8 107.542 12.908C107.266 13.004 107.032 13.16 106.84 13.376C106.648 13.592 106.504 13.856 106.408 14.168C106.324 14.48 106.282 14.846 106.282 15.266V20H103.78ZM114.798 20.216C113.766 20.216 112.89 20.042 112.17 19.694C111.45 19.334 110.904 18.788 110.532 18.056C110.16 17.312 109.974 16.382 109.974 15.266C109.974 14.126 110.16 13.196 110.532 12.476C110.904 11.744 111.45 11.204 112.17 10.856C112.89 10.496 113.766 10.316 114.798 10.316C115.854 10.316 116.736 10.496 117.444 10.856C118.164 11.204 118.71 11.744 119.082 12.476C119.454 13.196 119.64 14.126 119.64 15.266C119.64 16.382 119.454 17.312 119.082 18.056C118.71 18.788 118.164 19.334 117.444 19.694C116.736 20.042 115.854 20.216 114.798 20.216ZM114.798 18.272C115.35 18.272 115.788 18.17 116.112 17.966C116.448 17.762 116.694 17.45 116.85 17.03C117.006 16.61 117.084 16.094 117.084 15.482V15.05C117.084 14.438 117.006 13.922 116.85 13.502C116.694 13.082 116.448 12.77 116.112 12.566C115.788 12.35 115.35 12.242 114.798 12.242C114.258 12.242 113.82 12.35 113.484 12.566C113.16 12.77 112.92 13.082 112.764 13.502C112.608 13.922 112.53 14.438 112.53 15.05V15.482C112.53 16.094 112.608 16.61 112.764 17.03C112.92 17.45 113.16 17.762 113.484 17.966C113.82 18.17 114.258 18.272 114.798 18.272ZM124.307 20.216C123.707 20.216 123.221 20.108 122.849 19.892C122.477 19.676 122.207 19.388 122.039 19.028C121.871 18.656 121.787 18.248 121.787 17.804V12.458H120.617V10.532H121.877L122.345 7.832H124.289V10.532H126.017V12.458H124.289V17.39C124.289 17.678 124.355 17.9 124.487 18.056C124.619 18.2 124.835 18.272 125.135 18.272H126.017V19.928C125.873 19.976 125.705 20.018 125.513 20.054C125.321 20.102 125.117 20.138 124.901 20.162C124.685 20.198 124.487 20.216 124.307 20.216ZM131.989 20.216C130.957 20.216 130.081 20.042 129.361 19.694C128.641 19.334 128.095 18.788 127.723 18.056C127.351 17.312 127.165 16.382 127.165 15.266C127.165 14.126 127.351 13.196 127.723 12.476C128.095 11.744 128.641 11.204 129.361 10.856C130.081 10.496 130.957 10.316 131.989 10.316C133.045 10.316 133.927 10.496 134.635 10.856C135.355 11.204 135.901 11.744 136.273 12.476C136.645 13.196 136.831 14.126 136.831 15.266C136.831 16.382 136.645 17.312 136.273 18.056C135.901 18.788 135.355 19.334 134.635 19.694C133.927 20.042 133.045 20.216 131.989 20.216ZM131.989 18.272C132.541 18.272 132.979 18.17 133.303 17.966C133.639 17.762 133.885 17.45 134.041 17.03C134.197 16.61 134.275 16.094 134.275 15.482V15.05C134.275 14.438 134.197 13.922 134.041 13.502C133.885 13.082 133.639 12.77 133.303 12.566C132.979 12.35 132.541 12.242 131.989 12.242C131.449 12.242 131.011 12.35 130.675 12.566C130.351 12.77 130.111 13.082 129.955 13.502C129.799 13.922 129.721 14.438 129.721 15.05V15.482C129.721 16.094 129.799 16.61 129.955 17.03C130.111 17.45 130.351 17.762 130.675 17.966C131.011 18.17 131.449 18.272 131.989 18.272ZM142.831 20.216C141.823 20.216 140.977 20.042 140.293 19.694C139.609 19.334 139.087 18.788 138.727 18.056C138.379 17.312 138.205 16.382 138.205 15.266C138.205 14.126 138.379 13.196 138.727 12.476C139.087 11.744 139.609 11.198 140.293 10.838C140.989 10.478 141.835 10.298 142.831 10.298C143.479 10.298 144.061 10.376 144.577 10.532C145.105 10.688 145.561 10.928 145.945 11.252C146.329 11.576 146.617 11.978 146.809 12.458C147.013 12.926 147.115 13.484 147.115 14.132H144.613C144.613 13.7 144.547 13.346 144.415 13.07C144.283 12.794 144.079 12.584 143.803 12.44C143.539 12.296 143.203 12.224 142.795 12.224C142.315 12.224 141.925 12.332 141.625 12.548C141.325 12.764 141.103 13.082 140.959 13.502C140.815 13.922 140.743 14.444 140.743 15.068V15.482C140.743 16.094 140.815 16.61 140.959 17.03C141.115 17.45 141.349 17.768 141.661 17.984C141.973 18.188 142.381 18.29 142.885 18.29C143.293 18.29 143.629 18.218 143.893 18.074C144.169 17.93 144.379 17.714 144.523 17.426C144.667 17.138 144.739 16.79 144.739 16.382H147.115C147.115 16.994 147.013 17.54 146.809 18.02C146.617 18.5 146.329 18.902 145.945 19.226C145.573 19.55 145.123 19.796 144.595 19.964C144.067 20.132 143.479 20.216 142.831 20.216ZM153.347 20.216C152.315 20.216 151.439 20.042 150.719 19.694C149.999 19.334 149.453 18.788 149.081 18.056C148.709 17.312 148.523 16.382 148.523 15.266C148.523 14.126 148.709 13.196 149.081 12.476C149.453 11.744 149.999 11.204 150.719 10.856C151.439 10.496 152.315 10.316 153.347 10.316C154.403 10.316 155.285 10.496 155.993 10.856C156.713 11.204 157.259 11.744 157.631 12.476C158.003 13.196 158.189 14.126 158.189 15.266C158.189 16.382 158.003 17.312 157.631 18.056C157.259 18.788 156.713 19.334 155.993 19.694C155.285 20.042 154.403 20.216 153.347 20.216ZM153.347 18.272C153.899 18.272 154.337 18.17 154.661 17.966C154.997 17.762 155.243 17.45 155.399 17.03C155.555 16.61 155.633 16.094 155.633 15.482V15.05C155.633 14.438 155.555 13.922 155.399 13.502C155.243 13.082 154.997 12.77 154.661 12.566C154.337 12.35 153.899 12.242 153.347 12.242C152.807 12.242 152.369 12.35 152.033 12.566C151.709 12.77 151.469 13.082 151.313 13.502C151.157 13.922 151.079 14.438 151.079 15.05V15.482C151.079 16.094 151.157 16.61 151.313 17.03C151.469 17.45 151.709 17.762 152.033 17.966C152.369 18.17 152.807 18.272 153.347 18.272ZM160.03 20V6.986H162.532V20H160.03Z" fill="white"/>
</svg>
