<svg width="39" height="40" viewBox="0 0 39 40" fill="none" xmlns="http://www.w3.org/2000/svg">
<circle cx="19.0909" cy="20" r="19.0909" fill="#1777E2"/>
<g filter="url(#filter0_d_55_2446)">
<path d="M38.1818 20C38.1818 30.5436 29.6345 39.0909 19.0909 39.0909C8.54729 39.0909 0 30.5436 0 20C0 9.45638 8.54729 0.909088 19.0909 0.909088C29.6345 0.909088 38.1818 9.45638 38.1818 20ZM2.26757 20C2.26757 29.2913 9.79964 36.8233 19.0909 36.8233C28.3822 36.8233 35.9142 29.2913 35.9142 20C35.9142 10.7087 28.3822 3.17666 19.0909 3.17666C9.79964 3.17666 2.26757 10.7087 2.26757 20Z" fill="#073D79"/>
</g>
<g clip-path="url(#clip0_55_2446)">
<path d="M20.3398 27.9231C20.3627 25.5867 19.7703 23.6868 19.0169 23.6794C18.2634 23.6721 17.634 25.5601 17.6112 27.8964C17.5884 30.2328 18.1807 32.1328 18.9342 32.1401C19.6877 32.1475 20.317 30.2595 20.3398 27.9231Z" fill="white"/>
<path d="M15.97 27.3925C17.2525 25.4394 17.7814 23.5208 17.1516 23.1072C16.5217 22.6937 14.9715 23.9416 13.6891 25.8947C12.4066 27.8478 11.8776 29.7663 12.5075 30.1799C13.1374 30.5935 14.6875 29.3455 15.97 27.3925Z" fill="white"/>
<path d="M12.5754 24.5903C14.7103 23.6408 16.1926 22.3129 15.8863 21.6244C15.5801 20.9359 13.6013 21.1476 11.4664 22.0972C9.33164 23.0467 7.84931 24.3746 8.15555 25.0631C8.46179 25.7516 10.4406 25.5399 12.5754 24.5903Z" fill="white"/>
<path d="M15.63 19.6936C15.7447 18.9489 13.9656 18.057 11.6563 17.7016C9.34703 17.3461 7.38208 17.6618 7.26745 18.4065C7.15282 19.1512 8.93193 20.0431 11.2412 20.3985C13.5505 20.754 15.5154 20.4383 15.63 19.6936Z" fill="white"/>
<path d="M16.4592 17.9195C16.9582 17.3549 15.9435 15.6428 14.1928 14.0956C12.442 12.5483 10.6183 11.7517 10.1193 12.3163C9.62028 12.8809 10.635 14.593 12.3857 16.1402C14.1364 17.6875 15.9602 18.4841 16.4592 17.9195Z" fill="white"/>
<path d="M18.1104 16.8826C18.8354 16.6774 18.9074 14.6886 18.2713 12.4404C17.6351 10.1922 16.5316 8.53601 15.8066 8.74118C15.0815 8.94635 15.0095 10.9352 15.6456 13.1834C16.2818 15.4315 17.3853 17.0878 18.1104 16.8826Z" fill="white"/>
<path d="M22.5939 13.2533C23.2743 11.0181 23.2415 9.02824 22.5207 8.80881C21.7998 8.58938 20.6639 10.2235 19.9835 12.4587C19.3031 14.6939 19.3359 16.6838 20.0568 16.9032C20.7776 17.1226 21.9136 15.4885 22.5939 13.2533Z" fill="white"/>
<path d="M25.7977 16.2736C27.5783 14.7608 28.6263 13.0689 28.1384 12.4947C27.6506 11.9204 25.8116 12.6813 24.031 14.194C22.2503 15.7067 21.2024 17.3986 21.6902 17.9729C22.1781 18.5471 24.0171 17.7863 25.7977 16.2736Z" fill="white"/>
<path d="M26.8571 20.5476C29.1729 20.2378 30.9693 19.3812 30.8693 18.6343C30.7695 17.8874 28.8111 17.5332 26.4952 17.8429C24.1794 18.1528 22.383 19.0094 22.483 19.7563C22.5829 20.5031 24.5412 20.8574 26.8571 20.5476Z" fill="white"/>
<path d="M29.8444 25.2766C30.1642 24.5943 28.7083 23.2374 26.5926 22.2459C24.477 21.2544 22.5027 21.0038 22.183 21.6861C21.8632 22.3684 23.319 23.7253 25.4347 24.7168C27.5504 25.7082 29.5247 25.9589 29.8444 25.2766Z" fill="white"/>
<path d="M25.3943 30.3109C26.0322 29.9099 25.5411 27.9812 24.2974 26.0032C23.0538 24.0253 21.5284 22.747 20.8906 23.1481C20.2527 23.5491 20.7437 25.4778 21.9874 27.4557C23.231 29.4337 24.7564 30.712 25.3943 30.3109Z" fill="white"/>
</g>
<defs>
<filter id="filter0_d_55_2446" x="0" y="0.909088" width="38.6819" height="38.6818" filterUnits="userSpaceOnUse" color-interpolation-filters="sRGB">
<feFlood flood-opacity="0" result="BackgroundImageFix"/>
<feColorMatrix in="SourceAlpha" type="matrix" values="0 0 0 0 0 0 0 0 0 0 0 0 0 0 0 0 0 0 127 0" result="hardAlpha"/>
<feOffset dx="0.5" dy="0.5"/>
<feComposite in2="hardAlpha" operator="out"/>
<feColorMatrix type="matrix" values="0 0 0 0 0.109861 0 0 0 0 0.168348 0 0 0 0 0.233333 0 0 0 1 0"/>
<feBlend mode="normal" in2="BackgroundImageFix" result="effect1_dropShadow_55_2446"/>
<feBlend mode="normal" in="SourceGraphic" in2="effect1_dropShadow_55_2446" result="shape"/>
</filter>
<clipPath id="clip0_55_2446">
<rect width="25.4545" height="25.4545" fill="white" transform="translate(6.32422 7.48843)"/>
</clipPath>
</defs>
</svg>
