<svg width="17" height="17" viewBox="0 0 17 17" fill="none" xmlns="http://www.w3.org/2000/svg">
<circle cx="8" cy="8" r="8" fill="#1777E2"/>
<g filter="url(#filter0_d_1705_12810)">
<path d="M16 8C16 12.4183 12.4183 16 8 16C3.58172 16 0 12.4183 0 8C0 3.58172 3.58172 0 8 0C12.4183 0 16 3.58172 16 8ZM0.95022 8C0.95022 11.8935 4.10651 15.0498 8 15.0498C11.8935 15.0498 15.0498 11.8935 15.0498 8C15.0498 4.10651 11.8935 0.95022 8 0.95022C4.10651 0.95022 0.95022 4.10651 0.95022 8Z" fill="#073D79"/>
</g>
<g clip-path="url(#clip0_1705_12810)">
<path d="M8.52355 11.3203C8.53313 10.3413 8.28492 9.54509 7.96919 9.542C7.65343 9.53893 7.38971 10.3301 7.38015 11.3091C7.37057 12.2882 7.61879 13.0844 7.93452 13.0874C8.25027 13.0905 8.514 12.2994 8.52355 11.3203Z" fill="white"/>
<path d="M6.69212 11.0974C7.22952 10.279 7.4512 9.47504 7.18726 9.30173C6.92331 9.12841 6.27368 9.65138 5.7363 10.4698C5.19889 11.2882 4.97721 12.0922 5.24115 12.2655C5.50511 12.4388 6.15471 11.9159 6.69212 11.0974Z" fill="white"/>
<path d="M5.27031 9.92314C6.1649 9.52523 6.78606 8.96877 6.65772 8.68026C6.5294 8.39174 5.70017 8.48045 4.80558 8.87838C3.911 9.27629 3.28983 9.83275 3.41816 10.1213C3.54649 10.4098 4.37572 10.3211 5.27031 9.92314Z" fill="white"/>
<path d="M6.55047 7.87156C6.59851 7.55948 5.85297 7.18574 4.88529 7.03679C3.91759 6.88784 3.09418 7.02011 3.04614 7.33219C2.99811 7.64428 3.74364 8.01799 4.71134 8.16694C5.67902 8.31589 6.50244 8.18363 6.55047 7.87156Z" fill="white"/>
<path d="M6.89748 7.12815C7.10659 6.89156 6.68137 6.17414 5.94774 5.52576C5.21411 4.87738 4.44986 4.54356 4.24076 4.78016C4.03165 5.01677 4.45687 5.73419 5.19051 6.38257C5.92414 7.03095 6.68839 7.36476 6.89748 7.12815Z" fill="white"/>
<path d="M7.58958 6.69326C7.89341 6.60728 7.9236 5.77385 7.65702 4.83176C7.39044 3.88966 6.92802 3.19564 6.62419 3.28161C6.32036 3.36759 6.29017 4.201 6.55675 5.14311C6.82333 6.08519 7.28575 6.77923 7.58958 6.69326Z" fill="white"/>
<path d="M9.468 5.1725C9.75312 4.23583 9.73938 3.40198 9.4373 3.31003C9.13522 3.21808 8.65921 3.90285 8.37409 4.83951C8.08899 5.77616 8.10273 6.61002 8.40481 6.70197C8.70689 6.79391 9.1829 6.10916 9.468 5.1725Z" fill="white"/>
<path d="M10.8104 6.43819C11.5566 5.80427 11.9958 5.0953 11.7913 4.85466C11.5869 4.61402 10.8162 4.93284 10.0701 5.56674C9.32392 6.20066 8.88477 6.90963 9.08921 7.15027C9.29365 7.39091 10.0643 7.07211 10.8104 6.43819Z" fill="white"/>
<path d="M11.2545 8.22918C12.225 8.09935 12.9777 7.74039 12.9359 7.42741C12.894 7.11445 12.0734 6.96599 11.1029 7.0958C10.1325 7.22564 9.37971 7.58459 9.42159 7.89758C9.46347 8.21053 10.2841 8.35901 11.2545 8.22918Z" fill="white"/>
<path d="M12.5063 10.2105C12.6403 9.92461 12.0302 9.35601 11.1437 8.94052C10.2571 8.52504 9.42979 8.42001 9.2958 8.70592C9.1618 8.99185 9.77187 9.56045 10.6584 9.97594C11.545 10.3914 12.3723 10.4965 12.5063 10.2105Z" fill="white"/>
<path d="M10.6421 12.3205C10.9094 12.1524 10.7036 11.3442 10.1825 10.5154C9.6613 9.68652 9.02211 9.15086 8.75481 9.31893C8.4875 9.48699 8.69328 10.2952 9.21443 11.124C9.73558 11.9529 10.3748 12.4886 10.6421 12.3205Z" fill="white"/>
</g>
<defs>
<filter id="filter0_d_1705_12810" x="0" y="0" width="16.5" height="16.5" filterUnits="userSpaceOnUse" color-interpolation-filters="sRGB">
<feFlood flood-opacity="0" result="BackgroundImageFix"/>
<feColorMatrix in="SourceAlpha" type="matrix" values="0 0 0 0 0 0 0 0 0 0 0 0 0 0 0 0 0 0 127 0" result="hardAlpha"/>
<feOffset dx="0.5" dy="0.5"/>
<feComposite in2="hardAlpha" operator="out"/>
<feColorMatrix type="matrix" values="0 0 0 0 0.109861 0 0 0 0 0.168348 0 0 0 0 0.233333 0 0 0 1 0"/>
<feBlend mode="normal" in2="BackgroundImageFix" result="effect1_dropShadow_1705_12810"/>
<feBlend mode="normal" in="SourceGraphic" in2="effect1_dropShadow_1705_12810" result="shape"/>
</filter>
<clipPath id="clip0_1705_12810">
<rect width="10.6667" height="10.6667" fill="white" transform="translate(2.65039 2.75684)"/>
</clipPath>
</defs>
</svg>
