<svg width="17" height="17" viewBox="0 0 17 17" fill="none" xmlns="http://www.w3.org/2000/svg">
<circle cx="8" cy="8" r="8" fill="#1777E2"/>
<g filter="url(#filter0_d_1520_2446)">
<path d="M16 8C16 12.4183 12.4183 16 8 16C3.58172 16 0 12.4183 0 8C0 3.58172 3.58172 0 8 0C12.4183 0 16 3.58172 16 8ZM0.95022 8C0.95022 11.8935 4.10651 15.0498 8 15.0498C11.8935 15.0498 15.0498 11.8935 15.0498 8C15.0498 4.10651 11.8935 0.95022 8 0.95022C4.10651 0.95022 0.95022 4.10651 0.95022 8Z" fill="#073D79"/>
</g>
<g clip-path="url(#clip0_1520_2446)">
<path d="M8.52337 11.3202C8.53295 10.3411 8.28474 9.54497 7.969 9.54188C7.65325 9.53881 7.38953 10.33 7.37997 11.309C7.37039 12.2881 7.6186 13.0842 7.93434 13.0873C8.25009 13.0904 8.51381 12.2992 8.52337 11.3202Z" fill="white"/>
<path d="M6.69218 11.0978C7.22959 10.2794 7.45126 9.4754 7.18732 9.30209C6.92337 9.12878 6.27375 9.65175 5.73636 10.4702C5.19895 11.2886 4.97728 12.0926 5.24121 12.2659C5.50517 12.4392 6.15477 11.9162 6.69218 11.0978Z" fill="white"/>
<path d="M5.2697 9.92356C6.16429 9.52565 6.78545 8.9692 6.65711 8.68068C6.52879 8.39217 5.69956 8.48088 4.80497 8.87881C3.91039 9.27672 3.28922 9.83317 3.41755 10.1217C3.54588 10.4102 4.37511 10.3215 5.2697 9.92356Z" fill="white"/>
<path d="M6.54973 7.87162C6.59778 7.55954 5.85224 7.1858 4.88456 7.03685C3.91685 6.8879 3.09344 7.02017 3.04541 7.33225C2.99738 7.64434 3.74291 8.01805 4.7106 8.167C5.67829 8.31595 6.50171 8.18369 6.54973 7.87162Z" fill="white"/>
<path d="M6.89717 7.12815C7.10628 6.89156 6.68106 6.17414 5.94743 5.52576C5.2138 4.87738 4.44956 4.54356 4.24045 4.78016C4.03135 5.01677 4.45657 5.73419 5.19021 6.38257C5.92384 7.03095 6.68808 7.36476 6.89717 7.12815Z" fill="white"/>
<path d="M7.58909 6.69368C7.89292 6.60771 7.92311 5.77428 7.65653 4.83219C7.38995 3.89009 6.92753 3.19606 6.6237 3.28204C6.31987 3.36802 6.28968 4.20143 6.55626 5.14354C6.82284 6.08562 7.28527 6.77966 7.58909 6.69368Z" fill="white"/>
<path d="M9.46794 5.17286C9.75306 4.2362 9.73932 3.40235 9.43724 3.3104C9.13516 3.21845 8.65915 3.90322 8.37403 4.83988C8.08893 5.77653 8.10267 6.61039 8.40475 6.70233C8.70683 6.79428 9.18284 6.10952 9.46794 5.17286Z" fill="white"/>
<path d="M10.8104 6.43849C11.5566 5.80457 11.9958 5.0956 11.7913 4.85497C11.5869 4.61433 10.8162 4.93315 10.0701 5.56705C9.32392 6.20097 8.88477 6.90994 9.08921 7.15058C9.29365 7.39122 10.0643 7.07241 10.8104 6.43849Z" fill="white"/>
<path d="M11.2544 8.22949C12.2248 8.09965 12.9776 7.7407 12.9357 7.42772C12.8938 7.11476 12.0732 6.9663 11.1027 7.09611C10.1323 7.22594 9.37953 7.5849 9.4214 7.89788C9.46328 8.21084 10.2839 8.35932 11.2544 8.22949Z" fill="white"/>
<path d="M12.5063 10.2111C12.6402 9.92522 12.0302 9.35662 11.1436 8.94113C10.2571 8.52565 9.42973 8.42062 9.29574 8.70653C9.16174 8.99246 9.77181 9.56106 10.6584 9.97655C11.5449 10.392 12.3723 10.4971 12.5063 10.2111Z" fill="white"/>
<path d="M10.6413 12.3208C10.9087 12.1527 10.7029 11.3446 10.1817 10.5157C9.66057 9.68683 9.02138 9.15117 8.75407 9.31923C8.48677 9.4873 8.69255 10.2955 9.2137 11.1244C9.73485 11.9532 10.374 12.4889 10.6413 12.3208Z" fill="white"/>
</g>
<defs>
<filter id="filter0_d_1520_2446" x="0" y="0" width="16.5" height="16.5" filterUnits="userSpaceOnUse" color-interpolation-filters="sRGB">
<feFlood flood-opacity="0" result="BackgroundImageFix"/>
<feColorMatrix in="SourceAlpha" type="matrix" values="0 0 0 0 0 0 0 0 0 0 0 0 0 0 0 0 0 0 127 0" result="hardAlpha"/>
<feOffset dx="0.5" dy="0.5"/>
<feComposite in2="hardAlpha" operator="out"/>
<feColorMatrix type="matrix" values="0 0 0 0 0.109861 0 0 0 0 0.168348 0 0 0 0 0.233333 0 0 0 1 0"/>
<feBlend mode="normal" in2="BackgroundImageFix" result="effect1_dropShadow_1520_2446"/>
<feBlend mode="normal" in="SourceGraphic" in2="effect1_dropShadow_1520_2446" result="shape"/>
</filter>
<clipPath id="clip0_1520_2446">
<rect width="10.6667" height="10.6667" fill="white" transform="translate(2.65015 2.75708)"/>
</clipPath>
</defs>
</svg>
