<svg width="30" height="30" viewBox="0 0 30 30" fill="none" xmlns="http://www.w3.org/2000/svg">
<path d="M15 28.4375C7.5875 28.4375 1.5625 22.4125 1.5625 15C1.5625 7.5875 7.5875 1.5625 15 1.5625C22.4125 1.5625 28.4375 7.5875 28.4375 15C28.4375 22.4125 22.4125 28.4375 15 28.4375ZM15 3.4375C8.625 3.4375 3.4375 8.625 3.4375 15C3.4375 21.375 8.625 26.5625 15 26.5625C21.375 26.5625 26.5625 21.375 26.5625 15C26.5625 8.625 21.375 3.4375 15 3.4375Z" fill="#262626"/>
<path d="M11.4617 19.4742C11.2242 19.4742 10.9867 19.3867 10.7992 19.1992C10.4367 18.8367 10.4367 18.2367 10.7992 17.8742L17.8742 10.7992C18.2367 10.4367 18.8367 10.4367 19.1992 10.7992C19.5617 11.1617 19.5617 11.7617 19.1992 12.1242L12.1242 19.1992C11.9492 19.3867 11.6992 19.4742 11.4617 19.4742Z" fill="#616161"/>
<path d="M18.5367 19.4742C18.2992 19.4742 18.0617 19.3867 17.8742 19.1992L10.7992 12.1242C10.4367 11.7617 10.4367 11.1617 10.7992 10.7992C11.1617 10.4367 11.7617 10.4367 12.1242 10.7992L19.1992 17.8742C19.5617 18.2367 19.5617 18.8367 19.1992 19.1992C19.0117 19.3867 18.7742 19.4742 18.5367 19.4742Z" fill="#616161"/>
</svg>
