<svg width="24" height="24" viewBox="0 0 24 24" fill="none" xmlns="http://www.w3.org/2000/svg">
<g clip-path="url(#clip0_1831_5950)">
<path d="M18.7656 10.1074V12.5074" stroke="#555555" stroke-miterlimit="10" stroke-linecap="round" stroke-linejoin="round"/>
<path d="M4.03906 11.3084V2.32656C4.03906 1.45384 4.72997 0.726562 5.6027 0.726562H17.1663C18.0391 0.726562 18.7663 1.45384 18.7663 2.32656" stroke="#555555" stroke-miterlimit="10" stroke-linecap="round" stroke-linejoin="round"/>
<path d="M20.9819 23.2715H7.52734" stroke="#555555" stroke-miterlimit="10" stroke-linecap="round" stroke-linejoin="round"/>
<path d="M18.7656 12.3262H23.202V21.0534C23.202 22.2898 22.2202 23.2716 20.9838 23.2716C19.7474 23.2716 18.7656 22.2898 18.7656 21.0534V12.3262Z" stroke="#555555" stroke-miterlimit="10" stroke-linecap="round" stroke-linejoin="round"/>
<path d="M23.163 6.72578C22.8358 8.87124 20.8358 10.3621 18.6903 10.0712C16.5449 9.78033 15.0539 7.74397 15.3449 5.59851C15.6721 3.45306 17.6721 1.96215 19.8176 2.25306C21.963 2.58033 23.4539 4.58033 23.163 6.72578Z" stroke="#555555" stroke-miterlimit="10" stroke-linecap="round" stroke-linejoin="round"/>
<path d="M17.5625 7.85447L20.9443 4.47266" stroke="#555555" stroke-miterlimit="10" stroke-linecap="round" stroke-linejoin="round"/>
<path d="M17.9265 5.59908C18.3282 5.59908 18.6538 5.27347 18.6538 4.8718C18.6538 4.47014 18.3282 4.14453 17.9265 4.14453C17.5248 4.14453 17.1992 4.47014 17.1992 4.8718C17.1992 5.27347 17.5248 5.59908 17.9265 5.59908Z" stroke="#555555" stroke-miterlimit="10" stroke-linecap="round" stroke-linejoin="round"/>
<path d="M20.5827 8.21822C20.9844 8.21822 21.31 7.89261 21.31 7.49094C21.31 7.08928 20.9844 6.76367 20.5827 6.76367C20.1811 6.76367 19.8555 7.08928 19.8555 7.49094C19.8555 7.89261 20.1811 8.21822 20.5827 8.21822Z" stroke="#555555" stroke-miterlimit="10" stroke-linecap="round" stroke-linejoin="round"/>
<path d="M7.52955 23.2726H1.52955C1.16591 23.2726 0.875 22.9817 0.875 22.618V21.5999C0.875 21.2362 1.16591 20.9453 1.52955 20.9453H7.52955C7.89318 20.9453 8.18409 21.2362 8.18409 21.5999V22.618C8.18409 22.9817 7.89318 23.2726 7.52955 23.2726Z" stroke="#555555" stroke-miterlimit="10" stroke-linecap="round" stroke-linejoin="round"/>
<path d="M7.52955 20.9445H1.52955C1.16591 20.9445 0.875 20.6536 0.875 20.2899V19.2717C0.875 18.9081 1.16591 18.6172 1.52955 18.6172H7.52955C7.89318 18.6172 8.18409 18.9081 8.18409 19.2717V20.2899C8.18409 20.6536 7.89318 20.9445 7.52955 20.9445Z" stroke="#555555" stroke-miterlimit="10" stroke-linecap="round" stroke-linejoin="round"/>
<path d="M4.50987 18.654C6.55835 18.654 8.21896 17.0097 8.21896 14.9813C8.21896 12.9529 6.55835 11.3086 4.50987 11.3086C2.4614 11.3086 0.800781 12.9529 0.800781 14.9813C0.800781 17.0097 2.4614 18.654 4.50987 18.654Z" stroke="#555555" stroke-miterlimit="10" stroke-linecap="round" stroke-linejoin="round"/>
<path d="M4.50916 15.0159C3.96371 15.0159 3.52734 14.5795 3.52734 14.0705C3.52734 13.5614 3.96371 13.125 4.50916 13.125C5.05462 13.125 5.49098 13.5614 5.49098 14.0705" stroke="#555555" stroke-miterlimit="10" stroke-linecap="round" stroke-linejoin="round"/>
<path d="M5.48977 15.998C5.48977 16.5435 5.05341 16.9435 4.50795 16.9435C3.9625 16.9435 3.5625 16.5071 3.5625 15.998" stroke="#555555" stroke-miterlimit="10" stroke-linecap="round" stroke-linejoin="round"/>
<path d="M4.50781 15.0176C5.05327 15.0176 5.48963 15.4539 5.48963 15.963" stroke="#555555" stroke-miterlimit="10" stroke-linecap="round" stroke-linejoin="round"/>
<path d="M4.50781 13.1258V12.6895" stroke="#555555" stroke-miterlimit="10" stroke-linecap="round" stroke-linejoin="round"/>
<path d="M4.50781 16.9434V17.307" stroke="#555555" stroke-miterlimit="10" stroke-linecap="round" stroke-linejoin="round"/>
<path d="M6.51172 3.27148H12.039" stroke="#555555" stroke-miterlimit="10" stroke-linecap="round" stroke-linejoin="round"/>
<path d="M6.51172 5.30859H9.82081" stroke="#555555" stroke-miterlimit="10" stroke-linecap="round" stroke-linejoin="round"/>
<path d="M6.51172 8.43555H13.2026" stroke="#555555" stroke-miterlimit="10" stroke-linecap="round" stroke-linejoin="round"/>
<path d="M8.62109 10.4707H15.6029" stroke="#555555" stroke-miterlimit="10" stroke-linecap="round" stroke-linejoin="round"/>
<path d="M9.56641 12.5078H16.2937" stroke="#555555" stroke-miterlimit="10" stroke-linecap="round" stroke-linejoin="round"/>
<path d="M10.0742 14.5449H16.2924" stroke="#555555" stroke-miterlimit="10" stroke-linecap="round" stroke-linejoin="round"/>
<path d="M9.92969 16.5801H16.2933" stroke="#555555" stroke-miterlimit="10" stroke-linecap="round" stroke-linejoin="round"/>
<path d="M10.293 18.6172H16.293" stroke="#555555" stroke-miterlimit="10" stroke-linecap="round" stroke-linejoin="round"/>
<path d="M16.2929 20.7266H12.7656" stroke="#555555" stroke-miterlimit="10" stroke-linecap="round" stroke-linejoin="round"/>
</g>
<defs>
<clipPath id="clip0_1831_5950">
<rect width="24" height="24" fill="white"/>
</clipPath>
</defs>
</svg>
