<svg width="26" height="26" viewBox="0 0 26 26" fill="none" xmlns="http://www.w3.org/2000/svg">
<g clip-path="url(#clip0_404_1537)">
<path d="M12.9923 0C5.82841 0 0 5.83177 0 13C0 20.1684 5.82841 26 12.9923 26C20.1564 26 25.985 20.1684 25.985 13C25.9848 5.83177 20.1562 0 12.9923 0ZM12.9923 24.7178C6.53491 24.7178 1.28144 19.4613 1.28144 13C1.28144 6.53889 6.53491 1.28218 12.9923 1.28218C19.4497 1.28218 24.7036 6.53889 24.7036 13C24.7034 19.4613 19.4497 24.7178 12.9923 24.7178Z" fill="#313131"/>
<path d="M10.325 7.58331C9.81154 7.58331 8.26362 8.18965 7.98591 8.31082C7.7082 8.432 7.39996 8.81026 7.0502 9.43457C6.69996 10.0589 6.41891 10.7887 5.96226 11.8622C5.5061 12.9357 5.39969 15.0054 5.41496 15.637C5.43023 16.2687 5.50514 16.7622 6.17556 17.1358C6.84549 17.509 7.43813 17.8997 8.06178 18.1347C8.68591 18.3697 9.11154 18.5388 9.4007 18.3038C9.68986 18.0688 9.88025 17.6574 9.88025 17.6574C9.88025 17.6574 10.1541 17.2902 9.63689 17.0699C9.11965 16.8493 8.86103 16.6949 8.88345 16.4673C8.90636 16.2397 8.94405 16.1148 9.07336 16.1443C9.20268 16.1738 9.50758 16.7023 10.679 16.9446C11.8505 17.187 12.9923 17.1506 12.9923 17.1506C12.9923 17.1506 14.1346 17.1874 15.3061 16.9446C16.4775 16.7023 16.7819 16.1738 16.9112 16.1443C17.0405 16.1148 17.0782 16.2397 17.1011 16.4668C17.1241 16.6949 16.8654 16.8493 16.3482 17.0699C15.8309 17.2902 16.1048 17.6574 16.1048 17.6574C16.1048 17.6574 16.2952 18.0684 16.5844 18.3038C16.8731 18.5388 17.2992 18.3697 17.9228 18.1347C18.5465 17.8997 19.1396 17.5095 19.8095 17.1358C20.4799 16.7622 20.5549 16.2687 20.5701 15.637C20.5854 15.0058 20.479 12.9357 20.0223 11.8622C19.5662 10.7887 19.2846 10.0589 18.9344 9.43457C18.5851 8.81026 18.2764 8.432 17.9992 8.31036C17.7215 8.18965 16.1731 7.58331 15.6596 7.58331C15.1462 7.58331 14.9945 7.92887 14.9945 7.92887L14.8155 8.31082C14.8155 8.31082 13.6131 8.09013 13.0004 8.08967C12.3877 8.08967 11.1695 8.31082 11.1695 8.31082L10.9906 7.92841C10.9906 7.92841 10.8389 7.58331 10.325 7.58331ZM10.3808 12.1668H10.3999C11.1485 12.1668 11.755 12.7993 11.755 13.5794C11.755 14.3599 11.1485 14.992 10.3999 14.992C9.65121 14.992 9.04473 14.3599 9.04473 13.5794C9.04426 12.8067 9.63976 12.1774 10.3808 12.1668ZM15.5852 12.1668H15.6043C16.3453 12.1774 16.9403 12.8072 16.9403 13.5794C16.9403 14.3599 16.3339 14.992 15.5852 14.992C14.8361 14.992 14.2301 14.3599 14.2301 13.5794C14.2301 12.7993 14.8361 12.1668 15.5852 12.1668Z" fill="#6C6C6C"/>
</g>
<defs>
<clipPath id="clip0_404_1537">
<rect width="26" height="26" fill="white"/>
</clipPath>
</defs>
</svg>
