<svg width="26" height="26" viewBox="0 0 26 26" fill="none" xmlns="http://www.w3.org/2000/svg">
<g clip-path="url(#clip0_404_1540)">
<path d="M12.9923 0C5.82841 0 0 5.83177 0 13C0 20.1684 5.82841 26 12.9923 26C20.1564 26 25.985 20.1684 25.985 13C25.9848 5.83177 20.1562 0 12.9923 0ZM12.9923 24.7178C6.53491 24.7178 1.28144 19.4613 1.28144 13C1.28144 6.53889 6.53491 1.28218 12.9923 1.28218C19.4497 1.28218 24.7036 6.53889 24.7036 13C24.7034 19.4613 19.4497 24.7178 12.9923 24.7178Z" fill="#313131"/>
<path d="M6.49622 10.5625H9.40167V19.5H6.49622V10.5625ZM17.3157 10.6673C17.2849 10.6576 17.2556 10.647 17.2232 10.6381C17.1842 10.6292 17.1449 10.6216 17.1054 10.6153C16.9339 10.5802 16.7592 10.5625 16.5841 10.5625C14.8902 10.5625 13.8159 11.7951 13.4618 12.2712V10.5625H10.5564V19.5H13.4618V14.625C13.4618 14.625 15.6576 11.5651 16.5841 13.8125V19.5H19.4887V13.4688C19.4875 12.827 19.2735 12.2038 18.8803 11.6968C18.487 11.1898 17.9368 10.8278 17.3157 10.6673Z" fill="#6C6C6C"/>
<path d="M7.91727 9.34375C8.7021 9.34375 9.33833 8.70715 9.33833 7.92188C9.33833 7.1366 8.7021 6.5 7.91727 6.5C7.13244 6.5 6.49622 7.1366 6.49622 7.92188C6.49622 8.70715 7.13244 9.34375 7.91727 9.34375Z" fill="#6C6C6C"/>
</g>
<defs>
<clipPath id="clip0_404_1540">
<rect width="26" height="26" fill="white"/>
</clipPath>
</defs>
</svg>
