<svg width="26" height="26" viewBox="0 0 26 26" fill="none" xmlns="http://www.w3.org/2000/svg">
<g clip-path="url(#clip0_404_1531)">
<path d="M13 26C5.85 26 0 20.15 0 13C0 5.85 5.85 0 13 0C20.15 0 26 5.85 26 13C26 20.15 20.15 26 13 26ZM13 1.3C6.565 1.3 1.3 6.565 1.3 13C1.3 19.435 6.565 24.7 13 24.7C19.435 24.7 24.7 19.435 24.7 13C24.7 6.565 19.435 1.3 13 1.3Z" fill="#313131"/>
<path fill-rule="evenodd" clip-rule="evenodd" d="M10.855 15.665L16.9 10.205C17.16 9.94502 16.835 9.88002 16.51 10.075L9.10004 14.755L5.91506 13.78C5.20006 13.585 5.20006 13.065 6.04506 12.74L18.59 7.93002C19.175 7.67002 19.695 8.06002 19.5 8.97002L17.355 19.045C17.225 19.76 16.77 19.955 16.185 19.63L12.935 17.225L11.375 18.72C11.18 18.915 10.92 18.915 10.92 18.72L10.855 15.665Z" fill="#6C6C6C"/>
</g>
<defs>
<clipPath id="clip0_404_1531">
<rect width="26" height="26" fill="white"/>
</clipPath>
</defs>
</svg>
