<svg width="22" height="22" viewBox="0 0 22 22" fill="none" xmlns="http://www.w3.org/2000/svg">
<path d="M12.1137 17.6614C12.1335 15.6421 11.6215 14 10.9703 13.9936C10.3191 13.9873 9.77515 15.6191 9.75544 17.6383C9.73568 19.6576 10.2476 21.2998 10.8988 21.3061C11.5501 21.3125 12.094 19.6807 12.1137 17.6614Z" fill="#1777E2"/>
<path d="M8.33685 17.2028C9.44526 15.5148 9.90246 13.8566 9.35809 13.4991C8.81368 13.1417 7.47384 14.2203 6.36548 15.9083C5.25707 17.5963 4.79987 19.2544 5.34424 19.6119C5.88865 19.9694 7.22845 18.8908 8.33685 17.2028Z" fill="#1777E2"/>
<path d="M5.40303 14.7809C7.24812 13.9602 8.52927 12.8125 8.26457 12.2175C7.99991 11.6224 6.28963 11.8054 4.44453 12.6261C2.59945 13.4468 1.31829 14.5945 1.58297 15.1896C1.84765 15.7846 3.55795 15.6017 5.40303 14.7809Z" fill="#1777E2"/>
<path d="M8.04275 10.5488C8.14183 9.90511 6.60417 9.13427 4.60833 8.82707C2.61243 8.51986 0.914148 8.79266 0.815078 9.43633C0.716007 10.08 2.25367 10.8508 4.24954 11.158C6.24539 11.4652 7.9437 11.1924 8.04275 10.5488Z" fill="#1777E2"/>
<path d="M8.75974 9.01537C9.19102 8.52741 8.31402 7.04774 6.8009 5.71045C5.28778 4.37316 3.71154 3.68467 3.28026 4.17265C2.84898 4.66065 3.72599 6.14033 5.23912 7.47762C6.75224 8.81491 8.32849 9.50338 8.75974 9.01537Z" fill="#1777E2"/>
<path d="M10.1867 8.11924C10.8134 7.94192 10.8756 6.22297 10.3258 4.2799C9.77598 2.33682 8.82223 0.905395 8.19559 1.08272C7.56894 1.26004 7.50668 2.97897 8.0565 4.92206C8.60633 6.8651 9.56007 8.29656 10.1867 8.11924Z" fill="#1777E2"/>
<path d="M14.0616 4.98251C14.6497 3.05065 14.6214 1.33083 13.9983 1.14118C13.3753 0.951536 12.3935 2.36387 11.8054 4.29573C11.2174 6.22758 11.2458 7.94741 11.8688 8.13705C12.4918 8.32669 13.4736 6.91438 14.0616 4.98251Z" fill="#1777E2"/>
<path d="M16.8307 7.59285C18.3697 6.28539 19.2755 4.82314 18.8538 4.32683C18.4321 3.83051 16.8427 4.48808 15.3037 5.79549C13.7648 7.10295 12.859 8.56521 13.2807 9.06153C13.7023 9.55785 15.2917 8.90031 16.8307 7.59285Z" fill="#1777E2"/>
<path d="M17.7463 11.2868C19.7479 11.019 21.3004 10.2787 21.214 9.63318C21.1277 8.9877 19.4351 8.6815 17.4336 8.94924C15.432 9.21703 13.8795 9.95737 13.9658 10.6029C14.0522 11.2484 15.7448 11.5546 17.7463 11.2868Z" fill="#1777E2"/>
<path d="M20.3282 15.374C20.6046 14.7844 19.3463 13.6116 17.5178 12.7547C15.6892 11.8977 13.9829 11.6811 13.7065 12.2708C13.4302 12.8605 14.6884 14.0333 16.517 14.8902C18.3455 15.7471 20.0518 15.9638 20.3282 15.374Z" fill="#1777E2"/>
<path d="M16.4817 19.7252C17.033 19.3785 16.6086 17.7116 15.5337 16.0021C14.4588 14.2926 13.1405 13.1878 12.5892 13.5344C12.0379 13.881 12.4623 15.5479 13.5372 17.2575C14.6121 18.967 15.9304 20.0718 16.4817 19.7252Z" fill="#1777E2"/>
</svg>
