<svg width="17" height="17" viewBox="0 0 17 17" fill="none" xmlns="http://www.w3.org/2000/svg">
<circle cx="8" cy="8" r="8" fill="#1777E2"/>
<g filter="url(#filter0_d_87_2131)">
<path d="M16 8C16 12.4183 12.4183 16 8 16C3.58172 16 0 12.4183 0 8C0 3.58172 3.58172 0 8 0C12.4183 0 16 3.58172 16 8ZM0.95022 8C0.95022 11.8935 4.10651 15.0498 8 15.0498C11.8935 15.0498 15.0498 11.8935 15.0498 8C15.0498 4.10651 11.8935 0.95022 8 0.95022C4.10651 0.95022 0.95022 4.10651 0.95022 8Z" fill="#073D79"/>
</g>
<g clip-path="url(#clip0_87_2131)">
<path d="M8.52343 11.3202C8.53301 10.3411 8.2848 9.54497 7.96906 9.54188C7.65331 9.53881 7.38959 10.33 7.38003 11.309C7.37045 12.2881 7.61866 13.0842 7.9344 13.0873C8.25015 13.0904 8.51387 12.2992 8.52343 11.3202Z" fill="white"/>
<path d="M6.69212 11.0978C7.22952 10.2794 7.4512 9.4754 7.18726 9.30209C6.92331 9.12878 6.27368 9.65175 5.7363 10.4702C5.19889 11.2886 4.97721 12.0926 5.24115 12.2659C5.50511 12.4392 6.15471 11.9162 6.69212 11.0978Z" fill="white"/>
<path d="M5.2697 9.92356C6.16429 9.52565 6.78545 8.9692 6.65711 8.68068C6.52879 8.39217 5.69956 8.48088 4.80497 8.87881C3.91039 9.27672 3.28922 9.83317 3.41755 10.1217C3.54588 10.4102 4.37511 10.3215 5.2697 9.92356Z" fill="white"/>
<path d="M6.54973 7.87162C6.59778 7.55954 5.85224 7.1858 4.88456 7.03685C3.91685 6.8879 3.09344 7.02017 3.04541 7.33225C2.99738 7.64434 3.74291 8.01805 4.7106 8.167C5.67829 8.31595 6.50171 8.18369 6.54973 7.87162Z" fill="white"/>
<path d="M6.89723 7.12815C7.10634 6.89156 6.68113 6.17414 5.94749 5.52576C5.21386 4.87738 4.44962 4.54356 4.24052 4.78016C4.03141 5.01677 4.45663 5.73419 5.19027 6.38257C5.9239 7.03095 6.68814 7.36476 6.89723 7.12815Z" fill="white"/>
<path d="M7.58909 6.69368C7.89292 6.60771 7.92311 5.77428 7.65653 4.83219C7.38995 3.89009 6.92753 3.19606 6.6237 3.28204C6.31987 3.36802 6.28968 4.20143 6.55626 5.14354C6.82284 6.08562 7.28527 6.77966 7.58909 6.69368Z" fill="white"/>
<path d="M9.46788 5.17286C9.753 4.2362 9.73926 3.40235 9.43718 3.3104C9.1351 3.21845 8.65909 3.90322 8.37397 4.83988C8.08887 5.77653 8.10261 6.61039 8.40469 6.70233C8.70677 6.79428 9.18278 6.10952 9.46788 5.17286Z" fill="white"/>
<path d="M10.8104 6.43849C11.5566 5.80457 11.9958 5.0956 11.7913 4.85497C11.5869 4.61433 10.8162 4.93315 10.0701 5.56705C9.32392 6.20097 8.88477 6.90994 9.08921 7.15058C9.29365 7.39122 10.0643 7.07241 10.8104 6.43849Z" fill="white"/>
<path d="M11.2543 8.22949C12.2248 8.09965 12.9775 7.7407 12.9356 7.42772C12.8938 7.11476 12.0731 6.9663 11.1027 7.09611C10.1322 7.22594 9.37947 7.5849 9.42134 7.89788C9.46322 8.21084 10.2839 8.35932 11.2543 8.22949Z" fill="white"/>
<path d="M12.5062 10.2111C12.6402 9.92522 12.0301 9.35662 11.1435 8.94113C10.257 8.52565 9.42967 8.42062 9.29568 8.70653C9.16168 8.99246 9.77175 9.56106 10.6583 9.97655C11.5449 10.392 12.3722 10.4971 12.5062 10.2111Z" fill="white"/>
<path d="M10.6413 12.3208C10.9087 12.1527 10.7029 11.3446 10.1817 10.5157C9.66057 9.68683 9.02138 9.15117 8.75407 9.31923C8.48677 9.4873 8.69255 10.2955 9.2137 11.1244C9.73485 11.9532 10.374 12.4889 10.6413 12.3208Z" fill="white"/>
</g>
<defs>
<filter id="filter0_d_87_2131" x="0" y="0" width="16.5" height="16.5" filterUnits="userSpaceOnUse" color-interpolation-filters="sRGB">
<feFlood flood-opacity="0" result="BackgroundImageFix"/>
<feColorMatrix in="SourceAlpha" type="matrix" values="0 0 0 0 0 0 0 0 0 0 0 0 0 0 0 0 0 0 127 0" result="hardAlpha"/>
<feOffset dx="0.5" dy="0.5"/>
<feComposite in2="hardAlpha" operator="out"/>
<feColorMatrix type="matrix" values="0 0 0 0 0.109861 0 0 0 0 0.168348 0 0 0 0 0.233333 0 0 0 1 0"/>
<feBlend mode="normal" in2="BackgroundImageFix" result="effect1_dropShadow_87_2131"/>
<feBlend mode="normal" in="SourceGraphic" in2="effect1_dropShadow_87_2131" result="shape"/>
</filter>
<clipPath id="clip0_87_2131">
<rect width="10.6667" height="10.6667" fill="white" transform="translate(2.65015 2.75708)"/>
</clipPath>
</defs>
</svg>
